<svg width="229" height="62" viewBox="0 0 229 62" fill="none" xmlns="http://www.w3.org/2000/svg">
<path d="M38.5 29.3C38.6 29.3 38.7 29.2 38.7 29.1C38.7 29.1 38.6 29 38.5 29C38.4 28.9 38.3 29 38.3 29.1C38.3 29.2 38.3 29.3 38.5 29.3Z" fill="black"/>
<path d="M31.7 46.5C32.7 45.5 32.9 44 32.9 43.8L32.7 43.9001C32.6 44.2001 32.4 44.7001 31.6 45.1001C31.6 45.1001 32.3 45.1001 32.7 44.4001C32.7 44.5001 32.5 45.3 31.5 46.5C31.5 46.5 31.5 46.7 31.7 46.5Z" fill="black"/>
<path d="M41.7 23.5C42 23.5 42.1 23.3 42.1 23.1C42.1 23 41.9 22.7 41.7 22.8C41.5 22.9 41.3 23 41.3 23.3C41.3 23.5 41.5 23.6 41.7 23.5Z" fill="black"/>
<path d="M5.2 31.2C4.9 31 3.4 30.9 3.1 30.9C2.7 30.9 1.8 30.8 1.8 30.8C1.7 30.8 1.6 30.8 1.5 30.7C1.4 30.6 1.4 30.6 1.3 30.6L1.1 30.7C1 30.8 1.1 30.9 1.1 31C1.1 31.2 1.1 31.4 1.1 31.6C1.1 31.7 1.2 31.7 1.3 31.7C1.3 31.7 1.5 31.5 1.7 31.5C2.4 31.5 4.3 31.5 4.6 31.6C5.1 31.7 5.2 32.4 4.8 32.7C4.8 32.7 4.6 32.8 4.5 32.8C3.6 32.8 2.8 32.8 1.9 32.8C1.8 32.8 1.7 32.8 1.6 32.7C1.5 32.6 1.5 32.6 1.4 32.6H1.3C1.1 32.7 1.2 33 1.2 33.2C1.2 33.3 1.2 34.1 1.3 34.1C1.4 34.1 1.5 33.9 1.6 33.8C1.8 33.7 3.2 33.7 3.6 33.7C4.1 33.7 4.8 33.7 5.2 33.4C5.5 33.2 5.5 32.8 5.5 32.4C5.5 32 5.6 31.5 5.2 31.2ZM4.7 33.6C4.9 33.6 5 33.5 5.1 33.5C5 33.5 4.8 33.6 4.7 33.6Z" fill="black"/>
<path d="M5.2 27C5.1 27 4.3 26.9 3.9 26.8C3.3 26.8 2.7 26.7 2.1 26.6C2 26.6 1.9 26.5 1.9 26.4C1.9 26.3 1.8 26.2 1.7 26.2L1.6 26.3C1.5 26.4 1.5 26.5 1.5 26.7C1.5 26.9 1.5 27.1 1.4 27.3C1.4 27.4 1.4 27.5 1.5 27.5H1.6C1.7 27.5 1.7 27.4 1.8 27.4C1.9 27.4 3.4 27.5 3.3 27.6C3.4 27.6 2.2 28.2 1.8 28.4C1.6 28.5 1.4 28.6 1.3 28.7C1.2 28.8 1.1 29.4 1.1 29.6C1 29.7 1.1 29.7 1.2 29.7L1.6 29.4C1.7 29.3 1.9 29.4 2 29.4C2.8 29.5 4.9 29.6 4.9 29.7L5 29.8C5 30 5.2 30 5.2 30C5.4 30.1 5.4 29.8 5.4 29.7C5.4 29.4 5.5 29.2 5.5 28.9C5.5 28.8 5.3 28.9 5.3 28.9C5.3 28.9 5.2 29.1 5.1 29.1C5 29.1 4.8 29.1 4.7 29.1C4.4 29.1 2.8 28.9 2.8 28.8C3.3 28.5 5.6 27.2 5.6 27.2C5.7 27.1 5.2 27 5.2 27Z" fill="black"/>
<path d="M51.9 9.09995L52.2 8.99995C52.3 8.99995 52.3 8.89995 52.2 8.79995C52 8.59995 51.7 8.49995 51.6 8.19995C51.5 8.09995 51.3 8.09995 51.3 8.09995C51.3 8.09995 51 8.09995 51.1 8.39995C51.2 8.59995 51.1 8.89995 51 8.99995C50.8 9.29995 50.6 9.59995 50.3 9.89995C50.2 9.79995 50.4 8.49995 50.4 7.99995C50.4 7.69995 50.5 7.39995 50.3 7.19995C50.2 7.09995 49.7 6.69995 49.5 6.69995H49.3C49.3 6.79995 49.3 6.89995 49.3 6.89995C49.3 6.99995 49.3 7.19995 49.2 7.29995C49.2 7.49995 49.1 7.59995 49 7.69995C48.8 7.99995 47.8 9.09995 47.6 9.39995C47.4 9.59995 47.2 9.69995 46.9 9.89995C46.9 9.89995 46.7 9.99995 47.1 10.2C47.3 10.3 47.4 10.4 47.6 10.5C47.9 10.8 48 10.5 48 10.4C48 10.2 48 9.89995 48.2 9.79995C48.6 9.19995 49 8.69995 49.4 8.09995C49.4 8.09995 49.4 8.39995 49.4 8.49995C49.4 8.89995 49.1 10.9 49.1 11.5C49.1 11.7 49.3 11.9 49.5 11.9L49.6 11.8C49.7 11.6 49.7 11.4 49.8 11.2C49.8 11.1 49.9 11.1 50 11C50.5 10.4 51 9.89995 51.5 9.29995C51.6 9.29995 51.7 9.19995 51.9 9.09995Z" fill="black"/>
<path d="M6 24.8C6 24.8 5.6 25 5.2 24.8C4.8 24.7 2.9 24.4 2.6 24.1C2.5 24 2.3 23.7 2.1 23.8C2.1 23.8 2 23.8 1.9 24.3C1.8 24.6 1.8 24.9 1.7 25.2C1.7 25.3 1.8 25.3 1.8 25.3C1.9 25.3 1.9 25.2 2 25.2H2.1C2.2 25.2 4.6 25.6 5.1 25.8C5.3 25.9 5.4 26.1 5.6 26.2C5.7 26.3 5.8 26 5.8 25.9C5.8 25.7 5.9 25.5 5.9 25.3C5.9 25.2 6 25.1 6 25C6.2 24.8 6.1 24.8 6 24.8Z" fill="black"/>
<path d="M57.2 23.1C57.3 23.1 57.4 23 57.5 23C57.5 23 59.8 22.2 60.2 22.1C60.3 22.1 60.4 22.2 60.5 22.1C60.5 22.1 60.7 22.1 60.6 21.8C60.5 21.6 60.5 21.4 60.4 21.2C60.4 21 60.4 20.7 60.1 20.8L59.9 21C59.9 21 59.5 21.2 59.4 21.3C59 21.5 57.2 22.1 57.2 22.1C57 22.1 57 22.1 56.9 22.2C56.8 22.2 56.3 22.2 56.4 22.5C56.5 22.7 56.5 22.9 56.6 23.1C56.6 23.2 56.8 23.7 56.9 23.6C57 23.4 57.1 23.2 57.2 23.1Z" fill="black"/>
<path d="M15.1 10.7C14.9 10.7 14.7 10.6 14.6 10.5C14.2 10 12.9 8.70005 12.7 8.50005C12.6 8.30005 12.6 8.10005 12.5 7.90005L12.3 7.80005C12.3 7.80005 11.8 8.10005 11.3 8.60005C11.2 8.70005 11.2 8.70005 11.2 8.80005C11.2 8.90005 11.4 8.90005 11.5 8.90005C11.7 8.90005 11.8 9.00005 11.9 9.10005C12.5 9.70005 13.2 10.2 13.6 10.9C13.7 11.1 13.8 11.3 13.9 11.5C14 11.8 14.2 11.6 14.2 11.6C14.5 11.3 15.1 10.9 15.1 10.9C15.1 11 15.3 10.8 15.1 10.7Z" fill="black"/>
<path d="M54.5 11.7999C54.6 11.1999 54.2 10.5999 53.7 10.2999C52.9 9.79994 51.9 10.4999 51.3 10.9999C50.9 11.3999 50.6 11.8999 50.5 12.4999C50.4 13.0999 50.8 13.5999 51.3 13.8999C52.1 14.2999 53.1 13.6999 53.6 13.1999C54 12.7999 54.4 12.2999 54.5 11.7999ZM52.6 12.6999C52.5 12.7999 52.4 12.8999 52.3 12.9999C52.2 13.0999 52.1 13.1999 52 13.1999C51.9 13.2999 51.8 13.2999 51.7 13.2999C51.5 13.2999 51.2 13.0999 51.2 12.8999C51.1 12.6999 51.3 12.3999 51.4 12.1999C51.7 11.8999 52 11.5999 52.3 11.3999C52.5 11.1999 53.9 10.0999 54 10.8999C54 11.1999 53.7 11.4999 53.6 11.6999C53.2 12.0999 52.9 12.3999 52.6 12.6999Z" fill="black"/>
<path d="M10.8 14.5C10.6 14.5 9.5 14.4 9.1 14.3C8.9 14.3 8.9 14.3 8.9 14.1C8.9 13.8 8.8 13.6 8.6 13.5C8.2 13.2 7.7 13.1 7.3 13.4C7.3 13.4 6.9 13.6 6.2 14.7C6.1 14.9 6 15 5.9 15.2C5.7 15.5 6 15.4 6.2 15.4C6.5 15.4 6.8 15.7 7.1 15.8C7.7 16.2 8.2 16.6 8.8 17C8.9 17.1 9 17.3 9.1 17.4C9.1 17.4 9.1 17.7 9.2 17.6C9.3 17.6 9.8 16.8 10 16.5C10.2 16.2 9.8 16.3 9.6 16.2C9.4 16.1 9.3 16 9.1 15.9C8.9 15.8 8.3 15.5 8.7 15.2C9 15.1 9.3 15.1 9.6 15.1C10 15.1 10.5 15 10.9 14.9C11.1 14.8 11.3 14.7 11.4 14.6C11.3 14.4 10.9 14.5 10.8 14.5ZM7.9 15.2C7.7 15.2 7.5 15 7.4 14.9C7.2 14.8 7 14.7 6.9 14.6C6.8 14.5 6.7 14.4 6.8 14.3C6.9 14.2 7 14.1 7.1 14C7.4 13.9 7.8 14.2 8 14.4C8.2 14.6 8.1 15 7.9 15.2Z" fill="black"/>
<path d="M57.9 27.2L59.5 26.1L59.9 26.3C60.2 26.4 60.6 26.4 60.9 26.2C61.3 26 61.5 25.7 61.6 25.3C61.6 24.9 61.5 24.5 61.4 24.1C61.3 23.8 61.3 23.5 61.2 23.3C61.1 23.2 61.1 23.1 61 23.1L60.9 23.2C60.9 23.3 60.8 23.4 60.7 23.4C60.6 23.4 60.5 23.5 60.4 23.5C60.3 23.5 58.4 24 58 24.1C57.8 24.1 57.6 24.1 57.5 24C57.4 23.9 57 24 57.2 24.2C57.4 24.6 57.4 25 57.5 25.4C57.5 25.5 57.7 25.4 57.8 25.3C57.9 25.2 58.1 25.1 58.2 25.1C58.4 25 59 24.8 59.1 24.9C59.6 25 58.9 25.5 58.8 25.6C58.4 25.9 58.1 26.3 57.9 26.7C57.8 26.9 57.7 27.2 57.9 27.2ZM60.7 24.4C60.9 24.4 61 24.4 61 24.6C61.1 24.8 61.1 25 60.9 25.2C60.8 25.2 60.7 25.3 60.6 25.3H60.4C60.2 25.3 60 25.3 59.9 25.3C59.7 25.2 59.5 24.8 59.6 24.6C59.9 24.5 60.3 24.5 60.7 24.4Z" fill="black"/>
<path d="M11.6 11.1C11.1 11.1 9.9 11.8 9.8 11.8C9.6 11.9 9.3 11.9 9.1 11.7C8.9 11.5 9.1 11.1 9.4 11C9.6 10.9 9.9 10.9 10.2 10.8C10.4 10.8 10.7 10.8 10.9 10.6C11.1 10.4 10.4 10.2 10.3 10.1C10.2 10 10 10 10 10C9.9 9.90005 9.8 10.3 9.6 10.4C9.5 10.4 8.9 10.8 8.8 10.9C8.4 11.3 8.3 12 8.7 12.4C9.1 12.8 9.7 12.7 10.2 12.6C10.2 12.6 10.9 12.2 11.1 12.1C11.6 11.9 12 11.8 12.1 12.3C12.1 12.6 11.9 12.9 11.6 13.1C11.2 13.4 10.7 13.5 10.3 13.6C10.2 13.6 10.1 13.6 10 13.7C10 13.7 9.9 13.8 10 13.9C10.2 14 10.5 14.1 10.7 14.2C10.8 14.2 11 14.4 11.1 14.3L11.2 14.2C11.3 13.9 11.5 13.7 11.7 13.6C12 13.4 12.2 13.2 12.3 12.9C12.4 12.6 12.5 12.3 12.5 12C12.7 11.4 12.2 11.1 11.6 11.1Z" fill="black"/>
<path d="M55.7 15.1C55.6 14.7 55.4 14.3 55.4 13.9C55.4 13.8 55.4 13.7 55.5 13.7C56 13.5 56.2 14.3 56.2 14.7C56.2 14.9 56.2 15.2 56.1 15.4C56.1 15.5 56 15.6 56.1 15.6C56.3 15.6 57 15 57 15C57.2 14.8 56.8 14.6 56.7 14.4C56.6 14.3 56.6 14.1 56.5 14C56.5 13.9 56.4 13.8 56.3 13.8C56 13.3 55.3 12.9 54.8 13.2L54.6 13.3C54.6 13.3 54.2 13.7 54.1 14C54.1 14.5 54.2 15 54.4 15.5C54.5 15.9 54.5 16.4 54.2 16.7C53.5 17 53.2 15.9 53.2 15.4C53.2 15.1 53.3 14.8 53.4 14.5C53.4 14.4 53.3 14.3 53.2 14.4C53.2 14.4 52.6 14.9 52.5 15.2C52.4 15.4 52.2 15.5 52.4 15.7C52.7 15.9 52.8 16.2 52.9 16.5C53.1 17.1 53.6 17.4 54.3 17.4C54.7 17.4 55 17.2 55.3 16.9C55.7 16.2 55.8 15.7 55.7 15.1Z" fill="black"/>
<path d="M61.2 30.9C61.2 30.9 60.6 30.9 60.4 31.1C60 31.5 59.8 32.1 59.6 32.6C59.5 33 59.2 33.4 58.8 33.4C57.7 33 58.3 31.9 58.7 31.6C59 31.4 59.2 31.2 59.4 31.1C59.4 31.1 59.6 30.9 59.4 31L58.1 31.2C58.2 31.4 58.2 31.8 58 32.2C57.8 32.8 58 33.5 58.5 33.9C58.8 34.1 59.2 34.1 59.6 34.1C60.2 34 60.5 33.6 60.8 33.1C61.1 32.5 61 32.1 61.4 31.7C61.5 31.6 61.6 31.6 61.7 31.6C62.2 31.7 62 32.6 61.8 32.9C61.7 33.1 61.1 33.5 61.1 33.5C61.1 33.5 61 33.7 61.2 33.7C61.4 33.7 62.1 33.5 62.1 33.5C62.3 33.4 62.2 33.3 62.2 33.1C62.2 33 62.3 32.5 62.3 32.4C62.1 31.8 61.8 31 61.2 30.9Z" fill="black"/>
<path d="M16.4 6.19996C15.9 5.89996 15.3 5.99996 14.8 6.19996C14.6 6.29996 13.4 6.99996 13.3 7.09996C13.2 7.19996 13.5 7.29996 13.5 7.29996C13.8 7.39996 14 7.59996 14.2 7.89996C14.4 8.19996 14.6 8.59996 14.9 8.89996C15.1 9.19996 15.3 9.39996 15.5 9.69996C15.5 9.79996 15.6 9.99996 15.6 10.1C15.6 10.2 15.5 10.3 15.7 10.4H15.8C15.9 10.3 16.1 10.2 16.2 10.1C16.4 9.89996 17.2 9.39996 17.3 9.19996C17.5 8.89996 17.6 8.49996 17.5 8.09996C17.5 7.19996 17 6.59996 16.4 6.19996ZM16.6 9.09996C16.4 9.19996 16.3 8.99996 16.2 8.79996C16 8.49996 15.9 8.29996 15.7 7.99996C15.4 7.59996 15.1 7.19996 14.9 6.79996C14.7 6.59996 14.8 6.59996 14.9 6.49996C15.3 6.39996 15.6 6.69996 15.8 6.89996C16.1 7.29996 16.3 7.69996 16.6 7.99996C16.8 8.39996 17 8.79996 16.6 9.09996Z" fill="black"/>
<path d="M23.6 2.40006C23 2.30006 22.4 2.50006 21.9 2.60006C21.7 2.70006 21.4 2.80006 21.2 2.90006C21.1 3.00006 21.2 3.00006 21.2 3.10006C21.4 3.20006 21.5 3.40006 21.6 3.60006C21.8 4.40006 22.1 5.20006 22.3 6.10006C22.4 6.20006 22.3 6.40006 22.3 6.50006C22.3 6.60006 22.2 6.70006 22.3 6.80006C22.4 6.90006 22.9 6.70006 23 6.60006C23.4 6.50006 23.8 6.40006 24.1 6.20006C25.2 5.60006 25 4.20006 24.5 3.30006C24.4 2.80006 24.1 2.50006 23.6 2.40006ZM23.7 5.90006C23.4 6.00006 23.4 5.70006 23.3 5.50006C23.2 5.20006 23.1 4.90006 23 4.60006C22.8 4.10006 22.7 3.60006 22.5 3.10006C22.5 3.00006 22.5 2.90006 22.6 2.80006C23.4 2.50006 23.7 4.10006 23.8 4.50006C24 5.00006 24.2 5.60006 23.7 5.90006Z" fill="black"/>
<path d="M29.8 1.19999C29.2 1.09999 28.5 1.19999 28 1.29999C27.9 1.29999 27.5 1.39999 27.6 1.59999C27.6 1.69999 27.7 1.69999 27.8 1.79999C27.9 1.89999 27.9 1.99999 27.9 2.19999C28 2.49999 28 2.89999 28.1 3.19999C28.2 3.69999 28.2 4.19999 28.2 4.69999C28.2 4.79999 28.2 4.99999 28.2 5.09999C28.2 5.19999 28.1 5.29999 28.1 5.29999C28 5.39999 28.3 5.49999 28.4 5.49999C28.9 5.39999 29.5 5.39999 30 5.29999C30.1 5.29999 30.3 5.19999 30.4 5.09999C30.5 4.99999 30.6 4.99999 30.6 4.89999C31 4.49999 31.2 3.89999 31.2 3.39999C31.2 2.89999 31.1 2.29999 30.8 1.89999C30.6 1.39999 30.3 1.19999 29.8 1.19999ZM29.7 4.79999C29.4 4.89999 29.4 4.59999 29.4 4.39999C29.4 4.09999 29.3 3.79999 29.3 3.39999C29.2 2.79999 29.2 2.29999 29.1 1.69999V1.49999C30 1.19999 30 3.09999 30 3.49999C30 3.99999 30 4.49999 29.7 4.79999Z" fill="black"/>
<path d="M21.5 6.59995C21.3 6.49995 19.9 4.89995 19.5 4.29995C19.4 4.19995 19.4 3.99995 19.4 3.79995C19.4 3.69995 18.6 3.99995 18.5 3.99995C18.4 3.99995 18 4.19995 17.9 4.29995L18 4.59995C18.1 4.79995 18.1 4.99995 18.2 5.19995C18.3 5.59995 18.3 6.09995 18.4 6.59995C18.4 6.99995 18.4 7.29995 18.5 7.69995C18.5 7.89995 18.5 8.09995 18.4 8.29995C18.4 8.39995 18.2 8.49995 18.3 8.69995C18.3 8.79995 18.5 8.69995 18.5 8.69995C18.7 8.49995 19.3 8.29995 19.4 8.29995C19.5 8.29995 19.6 8.19995 19.6 8.09995C19.6 7.99995 19.3 7.89995 19.2 7.69995C19.1 7.59995 19.1 7.29995 19.2 7.09995C19.3 6.89995 19.9 6.69995 20.1 6.69995C20.2 6.69995 20.5 7.09995 20.5 7.09995C20.5 7.19995 20.5 7.19995 20.5 7.29995C20.5 7.39995 20.5 7.49995 20.6 7.49995C20.7 7.49995 21.9 6.89995 21.9 6.89995C22.1 6.79995 21.6 6.59995 21.5 6.59995ZM19.6 6.39995C19.6 6.39995 19.2 6.59995 19.1 6.59995C19 6.59995 18.9 6.59995 18.9 6.59995L18.8 6.29995C18.8 5.99995 18.7 5.29995 18.7 5.29995C18.9 5.39995 19.4 5.99995 19.5 6.09995C19.6 6.19995 19.7 6.29995 19.6 6.39995Z" fill="black"/>
<path d="M57 20.9C57.6 20.3 58.9 19.2 58.9 19.2L59.4 19.1C59.6 18.9 58.9 18.1 58.9 17.9C58.9 17.8 58.7 17.8 58.8 17.8C58.8 17.8 58.6 17.8 58.4 18.2L58.1 18.3C57.4 18.5 55.5 18.6 55.3 18.6C55 18.6 54.8 18.5 54.6 18.6H54.5C54.4 18.7 54.6 18.8 54.6 18.9C54.7 19 54.8 19.3 54.8 19.4C54.8 19.5 55 19.5 55.1 19.4L55.4 19.2C55.6 19.1 55.8 19.1 55.9 19C56.1 19 56.1 19 56.2 19.2C56.3 19.4 56.4 19.6 56.5 19.8C56.6 19.9 56.6 20 56.6 20.1C56.6 20.2 56 20.6 55.9 20.6H55.7C55.7 20.6 55.6 20.6 55.6 20.8C55.6 20.9 55.7 21 55.8 21.1C55.9 21.3 55.9 21.5 56 21.7C56.1 21.9 56.3 21.7 56.3 21.7C56.3 21.6 56.4 21.6 56.4 21.5C56.5 21.3 56.8 21.1 57 20.9ZM56.8 18.7C56.9 18.7 57.7 18.7 57.7 18.7C57.7 18.7 57.9 18.7 57.8 18.9L57.2 19.5H57C56.9 19.4 56.9 19.2 56.8 19.1C56.8 18.9 56.7 18.8 56.8 18.7Z" fill="black"/>
<path d="M7.6 17.6C7.5 17.7 7.7 18 7.8 18.1C7.9 18.3 7.9 18.5 7.9 18.7C7.9 18.9 7.9 19.3 7.7 19.5C7.6 19.5 6.4 18.9 6.4 18.8C6.4 18.8 6.5 18.4 6.8 18.3C6.9 18.3 7.2 18.3 7.2 18.2C7.4 18 6.3 17.6 6.1 17.5C5.9 17.4 6 18 6.1 18C6.1 18.1 6.2 18.3 6 18.5C5.7 18.4 4.9 18 4.8 17.9C4.7 17.9 5.1 17.1 5.2 17.1C5.4 17.1 5.8 17 5.9 16.9C6.1 16.8 5.9 16.7 5.8 16.7C5.6 16.7 5.4 16.7 5.2 16.6C5.1 16.6 5 16.6 5 16.6C4.8 16.7 4.2 17.9 4.1 18.3C4.1 18.4 3.7 18.9 4 18.9L4.1 18.8C4.2 18.7 4.2 18.7 4.4 18.7C4.7 18.7 5 18.9 5.3 19.1C5.8 19.4 6.3 19.6 6.8 19.9C6.9 20 7.3 20.2 7.3 20.3C7.2 20.6 7.2 20.7 7.3 20.7H7.5L8.8 18.4C8.7 18.4 7.8 17.1 7.6 17.6Z" fill="black"/>
<path d="M47.3 8.60002C47.1 8.60002 46.9 8.80002 46.8 8.80002C46.4 8.90002 46 8.80002 45.7 8.60002C45.4 8.40002 45.5 8.30002 45.6 8.10002C45.8 7.70002 46 7.40002 46.2 7.10002C46.3 7.10002 46.4 7.20002 46.5 7.30002C46.7 7.50002 46.7 7.60002 46.8 7.90002C46.8 8.10002 46.9 8.10002 47.1 8.00002C47.3 7.80002 47.3 7.50002 47.4 7.30002C47.5 7.20002 47.7 6.80002 47.5 6.80002C47.4 6.80002 47.2 6.90002 47.1 6.90002H46.9C46.7 6.80002 46.6 6.90002 46.5 6.70002C46.7 6.40002 46.9 6.10002 47.1 5.80002C47.3 5.80002 47.6 6.10002 47.7 6.30002C47.8 6.50002 47.9 6.70002 48 6.90002C48.1 7.10002 48.3 7.10002 48.3 7.10002C48.4 7.10002 48.4 7.00002 48.5 6.90002C48.3 6.70002 48.5 6.20002 48.5 6.20002C48.5 6.10002 48.2 6.00002 48.1 6.00002C47.5 5.60002 47 5.30002 46.4 4.90002C46.3 4.80002 45.8 4.60002 45.8 4.90002C45.8 5.00002 45.8 5.10002 45.8 5.20002C45.8 5.40002 45.6 5.60002 45.5 5.80002C45.2 6.30002 44.2 7.80002 44 8.00002C43.6 8.10002 43.6 8.20002 43.6 8.20002C43.4 8.40002 43.9 8.50002 44 8.50002C44.4 8.70002 45.6 9.40002 45.8 9.50002C45.9 9.60002 46 9.60002 46.1 9.70002C46.1 9.70002 46.3 9.70002 47 8.90002C47.3 8.80002 47.5 8.60002 47.3 8.60002Z" fill="black"/>
<path d="M57.8 30.1C57.8 30.2 57.8 30.2 57.8 30.3H57.9C57.9 30.3 58.8 30.4 58.9 30.4C59.1 30.4 59.2 30.3 59.1 30.2C58.5 29.9 58.2 29.3 58.1 28.9C58.1 28.6 58.2 28.6 58.5 28.6C58.9 28.6 59.3 28.5 59.8 28.5C59.8 28.6 59.8 28.7 59.8 28.9C59.7 29.1 59.7 29.2 59.5 29.4C59.4 29.5 59.4 29.6 59.6 29.6C59.8 29.6 60.3 29.4 60.6 29.4C60.8 29.4 60.7 29.3 60.7 29.2C60.3 28.9 60.4 28.7 60.4 28.6C60.3 28.4 60.4 28.4 60.6 28.4C61 28.4 61.4 28.3 61.7 28.3C61.8 28.5 61.7 29.1 61.7 29.3C61.6 29.5 61.4 29.6 61.3 29.8C61.3 29.8 61.1 30.1 61.5 30L62.2 29.8C62.3 29.7 62.2 29.6 62.2 29.5C62.2 28.8 62.1 28.2 62.1 27.6C62.1 27.3 62 27.1 62 27.1C62 27 61.9 27 61.8 27.1C61.7 27.2 61.6 27.2 61.5 27.3C61.3 27.4 60.4 27.3 60.2 27.4C60 27.6 58.5 27.6 58.3 27.6C58.2 27.5 58.2 27.5 58.1 27.4C57.9 27.4 57.9 27.8 57.9 27.9C58 28.4 58 28.8 58.1 29.2C57.8 29.6 57.8 29.9 57.8 30.1Z" fill="black"/>
<path d="M6.6 22.1C6.4 22.1 6.3 22.1 6.2 22C5.4 21.5 4.6 20.9 3.9 20.3C3.8 20.2 3.8 20.2 3.7 20.1C3.6 20 3.6 19.7 3.5 19.7C3.2 19.8 3 20.7 3 20.8C3 20.9 3.2 20.8 3.2 20.8C3.5 20.7 4.1 21.2 4.4 21.4C4.5 21.5 5.4 22 5.2 22.2C5.1 22.2 3.5 22.2 3.3 22.2C3.1 22.2 2.9 22.1 2.8 22C2.7 21.9 2.6 22 2.6 22C2.5 22 2.3 23 2.2 23.2C2.2 23.3 2.3 23.4 2.4 23.3C2.5 23.2 2.4 23.2 2.5 23.2C2.6 23.2 2.7 23.2 2.8 23.2C3 23.2 6.1 23.1 6.2 23.2C6.4 23.5 6.5 23.3 6.5 23.3C6.6 23.1 6.7 22.8 6.8 22.6C6.8 22.5 7 22.2 6.9 22.1C6.8 22 6.7 22 6.6 22.1Z" fill="black"/>
<path d="M36.2 8.10002C35.7 7.80002 35.4 7.40002 35 7.10002C34.8 6.90002 34.6 6.70002 34.4 6.60002L34.1 6.40002C34.1 6.40002 34.5 6.90002 34.6 7.10002C35 7.60002 35.5 8.00003 36 8.30002C36.2 8.30002 36.3 8.20002 36.2 8.10002Z" fill="black"/>
<path d="M39.2 8.60005C38.3 8.20005 37.7 7.60005 37 7.00005C36.7 6.70005 36.3 6.40005 35.9 6.20005L35.3 5.80005C35.3 5.90005 36 6.60005 36.3 6.90005C37.1 7.60005 38 8.30005 39 8.80005C39.1 8.80005 39.3 8.70005 39.2 8.60005Z" fill="black"/>
<path d="M34.1 9.19998C33.9 8.99998 33.8 8.89998 33.6 8.69998C33.5 8.59998 33.1 8.39998 32.9 8.59998C33 8.69998 33.2 8.99998 33.2 9.19998C33.2 9.39998 33.2 9.69998 33.5 9.69998C33.7 9.69998 34 9.59998 34 9.59998C33.7 9.69998 33.4 9.59998 33.5 9.19998C33.5 8.89998 33.3 8.69998 33.3 8.69998C33.5 8.89998 33.6 8.79998 34 9.29998C34.1 9.39998 34.4 9.59998 34.6 9.49998L34.8 9.39998C34.4 9.59998 34.2 9.39998 34.1 9.19998Z" fill="black"/>
<path d="M40.8 25.2C41.3 25.5 42 25.5 42.5 25.2C43.3 24.8 43.5 23.9 43.6 23.4L43.4 23.5C43.3 23.9 42.8 24.9 41.6 25C40.4 25.1 39.7 24.4 39.7 24.4C40 24.7 40.4 25 40.8 25.2Z" fill="black"/>
<path d="M42 28.3C42.4 28.4 43.1 28.6 43.3 29C43.3 29 43.3 29.7 43.3 30.2C43.3 30.7 43.2 31.3 42.7 31.7L42.9 31.6C43.6 31.1 43.6 30.1 43.5 29.4C43.5 28.9 43.8 28.6 44.2 28.3C43.9 28.5 43.6 28.6 43.5 28.9C43.2 28.5 42 28.3 42 28.3Z" fill="black"/>
<path d="M46.1 35.4001L46.2 35.1001C45.8 33.4001 43.3 33.4 43.3 33.3C44.6 33.7 45.5 34.2001 46.1 35.4001Z" fill="black"/>
<path d="M28.7 31.6C29.1 31.5 29.6 32 29.9 32.3C30.5 33 31 33.7 31.5 34.4C31.6 34.6 31.7 34.7 31.8 34.9C31.8 35 31.8 35 31.9 35C32.1 35 32.5 35.1 32.7 35.1C33.5 35.1 34.2 35.1 34.9 35.1C36.1 35.1 37.6 35.1 38.7 34.9L38.8 34.7C37.5 34.7 36.3 34.7 35 34.7C34.2 34.7 33.6 34.7 32.8 34.7C32.6 34.7 32.1 34.8 32 34.7C31.9 34.5 31.8 34.3 31.7 34.2C31.2 33.5 30.7 32.8 30.1 32.1C29.7 31.7 29.1 31.2 28.5 31.5C28.3 31.6 28.3 31.8 28.1 31.9C28.1 31.9 28.6 31.6 28.7 31.6Z" fill="black"/>
<path d="M27 43.7C27.9 44.1 29.1 44.4 30 44L30.2 43.9C29.2 44.3 28.1 44 27.2 43.6C26.1 43.1 25 42.3 24.2 41.5C23.3 40.6 21.9 38.4 21.9 38.4C22.3 39.6 23 40.7 23.9 41.6C24.8 42.4 25.9 43.2 27 43.7Z" fill="black"/>
<path d="M31.2 46.6001C31.1 46.5001 30.9 46.6 30.7 46.5C27.8 46.3 25.6 44.8 25.6 44.8C26.6 45.9 28.1 46.6001 29.6 46.9001C30.9 47.2001 31.3 46.7001 31.2 46.6001Z" fill="black"/>
<path d="M34.2 46.9C34 47.9 32.8 48.4 32.8 48.4C33.9 48.4 34.2 47.4 34.2 46.9Z" fill="black"/>
<path d="M23.4 41.9C23.7 42.7 24.5 44.1 25.2 45.1C25.6 45.7 26.1 46.1 26.5 46.7C26.9 47.2 27.3 47.7 27.4 48.3L27.6 48.6C27.6 48.6 27.8 47.7 26.7 46.6C25 44.9 23.4 41.9 23.4 41.9Z" fill="black"/>
<path d="M23.5 46.5C23.5 46.1 23.4 45.7 23.3 45.3C23.2 44.5 23 43.8 22.6 43.1C22.5 43.2 22.4 43.2 22.3 43.3C22.6 43.6 22.7 44 22.8 44.4C22.9 44.9 23 45.4 23.1 45.8C23.2 46.4 23.3 47 23.4 47.6H23.5C23.5 47.5 23.5 47.3 23.5 47.2C23.5 46.9 23.5 46.7 23.5 46.5Z" fill="black"/>
<path d="M41.4 35.4C41.6 35.3 40.2 33.8 39.2 33.4H39.1C40.8 34.3 41.4 35.4 41.4 35.4Z" fill="black"/>
<path d="M56.3 34.8C56.3 34.8 55.9 34.5 55.9 34.4H55.8C55.6 34.4 56 34.7 56.3 34.8Z" fill="black"/>
<path d="M38.8 5.59998C38.8 5.69998 39.2 6.09998 39.2 6.09998C39.5 6.49998 39.8 6.99998 40 7.39998C40.2 7.79998 40.3 8.29998 40.3 8.79998C40 8.29998 39.6 7.79998 39.2 7.39998C39.2 7.39998 39 7.39998 39.1 7.49998C39.6 8.09998 40 8.69998 40.2 9.29998V9.49998L40.4 9.59998L40.5 9.49998C40.6 9.29998 40.7 8.99998 40.7 8.79998C40.7 8.29998 40.5 7.79998 40.2 7.29998C40 6.89998 38.9 5.59998 38.8 5.59998Z" fill="black"/>
<path d="M8.5 47.4V47C8.7 47 9.2 47 9.4 46.9C9.9 46.7 10 46.2 9.9 45.7C9.8 45.2 9.2 44.4 9.2 44.4L8.8 43.9L8.5 44.1C8.3 44.2 8.1 44.2 7.9 44.3C7.4 44.4 5.7 44.5 5.4 44.6C5.2 44.6 5 44.6 4.8 44.6C4.7 44.6 4.6 44.4 4.5 44.5C4.4 44.5 4.4 44.6 4.5 44.6C4.5 44.6 4.9 45 5 45.5C5 45.5 5.6 45.1 6.1 45.3C6.2 45.5 6.7 46.4 6.7 46.6C6.6 46.8 6.1 47.2 6.1 47.2V47.3L6.5 48C6.5 48 6.7 48.3 6.7 48C6.7 47.8 7 47.2 7.2 47.1C7.3 46.7 7.4 46.5 7.6 46.4L7.8 46.6C8 46.8 8.1 46.9 8 47.3C7.8 47.7 7.3 48.3 7.2 48.6C7.1 48.8 7.5 49.3 7.5 49.3C7.6 49.4 7.6 49.3 7.7 49.2C8 48.4 8.5 47.8 8.5 47.4ZM7.4 45.5C7.2 45.6 7.1 45.8 7 45.9L6.6 45L6.9 44.9C7.2 44.9 7.8 44.8 7.8 44.9C7.7 45.1 7.4 45.5 7.4 45.5ZM7.8 46C8.1 45.8 8.8 44.6 8.9 44.8C9 44.9 9.3 45.2 9.3 45.4C9.3 45.7 9 46.2 8.7 46.3C8.4 46.4 8 46.3 7.8 46Z" fill="black"/>
<path d="M12.7 50.3C12.7 50.3 13.1 49.8 13.1 50.2C13.1 50.2 13.2 50.9 13.4 50.5C13.4 50.5 13.6 50.2 13.7 50.1C13.7 50.1 14 50.1 13.7 49.8L12.4 48.5C12.4 48.5 12.3 48.2 12 48.5L11.8 48.7C11.8 48.7 11.5 48.9 11.9 49C11.9 49 12.3 49 12.4 49.4L11.2 50.6C11.2 50.6 11.1 50.8 10.9 50.6L10.2 49.8C10.2 49.8 10 49.5 9.9 49.9C9.9 49.9 9.8 50.4 9.2 50.5C9.2 50.5 8.9 50.6 8.7 50.1C8.7 50.1 8.6 49.9 9.1 49.4L10.6 48C10.6 48 10.9 47.7 11.2 47.9C11.2 47.9 11.5 48.1 11 48.6L11.4 48.9C11.4 48.9 11.7 48.7 11.8 48.5C11.8 48.4 12.1 47.9 11.5 47.5C11.5 47.5 10.9 46.9 9.9 47.6C9.9 47.6 8.1 48.7 8.4 49.9C8.4 49.9 8.8 51.1 9.9 50.9C9.9 50.9 10.3 50.9 10.5 50.6C10.5 50.6 10.5 50.4 10.7 50.7C10.7 50.7 10.9 50.9 10.7 51.1C10.7 51.1 10.4 51.5 10 51.6C10 51.6 9.7 51.6 9.9 51.9L10.4 52.4C10.4 52.4 10.7 52.6 10.7 52.3C10.6 52.3 11.4 51.3 12.7 50.3Z" fill="black"/>
<path d="M16.4 52C16.4 52 16.2 51.9 15.8 52.2L14.4 53.2C14.4 53.2 14.2 53.2 14.2 53C14.2 53 14.5 52 14.6 51.8C14.6 51.8 14.9 50.8 14.7 50.6C14.7 50.6 14.4 50.2 14.2 50.5L11.7 52.9C11.7 52.9 11.4 53.2 11.6 53.4L11.9 53.7C11.9 53.7 12.1 53.9 12.2 53.6C12.2 53.6 12.2 53.4 12.5 53.1L13.5 52.1C13.5 52.1 13.6 51.9 13.6 52.2L13.1 54.2C13.1 54.2 13 54.8 13.4 54.6L15.4 53.3C15.4 53.3 15.6 53.1 15.6 53.5L14.7 55.5C14.7 55.5 14.6 55.7 14.8 55.9L15.1 56.1C15.1 56.1 15.4 56.3 15.4 56L16.7 52.7C16.6 52.7 16.8 52.2 16.4 52Z" fill="black"/>
<path d="M19.6 54L19.3 53.8C19.3 53.8 19 53.6 18.8 54C18.8 54 18.8 54.3 18.3 54.6L17.5 55.3C17.5 55.3 17.3 55.4 17.4 55.2L17.9 53.6C17.9 53.6 18.2 53.2 17.6 52.9C17.6 52.9 17.3 52.6 17.1 53L16.1 56.4C16.1 56.4 15.9 56.7 16.2 56.8C16.2 56.8 16.4 56.9 16.4 57C16.4 57 16.7 57.1 16.9 56.9L19.6 54.3C19.7 54.3 20 54.1 19.6 54Z" fill="black"/>
<path d="M20.6 54.4C20.4 54.2 20.5 54.3 20.5 54.3C20.5 54.3 20.2 54.1 20 54.5L18.4 57.5C18.4 57.5 18 57.9 18.3 57.9L18.6 58.1C18.6 58.1 18.8 58.3 19 58L20.5 55C20.5 55 20.8 54.6 20.6 54.4Z" fill="black"/>
<path d="M27.9 57C27.9 57 27.5 56.8 27.3 57L26 58.8C26 58.8 25.8 59.1 25.9 57.8C25.9 57.8 26.2 57.2 25.7 57.3C25.7 57.3 25.1 57.1 25 57.8C25 57.8 25 58.1 25.1 58.3L25.3 60.1C25.3 60.1 25.3 60.4 25.5 60.4C25.5 60.4 25.7 60.5 26 60.2L27.9 57.4C28 57.4 28.3 57.1 27.9 57Z" fill="black"/>
<path d="M29.1 58C29.3 57.6 29.7 58 29.7 58C30 58.2 30 57.9 30 57.9C30.2 57.6 30 57.5 30 57.5C29.6 57.2 29 57.4 29 57.4C27.9 57.7 28.7 59 28.7 59C29.7 60.2 28.8 60.3 28.8 60.3C28 60.3 27.9 59.8 27.9 59.8C27.6 59.4 27.4 59.8 27.4 59.8L27.2 60.1C27 60.4 27.4 60.5 27.4 60.5C28.9 61.4 29.5 60.7 29.5 60.7C30.6 59.8 29.7 58.9 29.7 58.9C28.8 58.2 29.1 58 29.1 58Z" fill="black"/>
<path d="M25.6 56.6C25.6 56.6 25.7 56.3 25.3 56.2C25.3 56.2 25.1 56.2 24.5 56C24.5 56 23.9 55.6 23.7 55.9C23.7 55.9 23.3 56.5 23.7 56.5C23.7 56.5 24 56.3 24.1 56.4C24.1 56.4 24.2 56.3 24.2 56.7L23.3 59C23.3 59 23.2 59.4 22.8 59C22.8 59 22.6 58.8 22.6 58.2C22.6 58.2 22.6 57.6 22.4 57.4C22.4 57.4 22.8 57.3 23.1 56.9C23.1 56.9 23.5 56.4 23.3 55.8C23.3 55.8 23.2 55.4 22.7 55.2L21.7 54.7C21.7 54.7 21.2 54.5 21.3 54.9C21.3 54.9 21.3 55.2 21.1 55.6L19.9 58.1C19.9 58.1 19.6 58.4 20 58.5L20.5 58.7C20.5 58.7 20.8 58.9 20.8 58.6C20.8 58.6 20.9 58 21.1 57.7L21.4 57.1C21.4 57.1 22 57.2 22.1 58.2C22.1 58.2 22 59.4 22.9 59.6C22.9 59.6 23.9 60 24.2 59.1L25.1 56.8C25.1 56.8 25.1 56.5 25.3 56.5C25.3 56.5 25.4 56.4 25.5 56.6C25.3 56.8 25.6 56.9 25.6 56.6ZM21.6 57C21.2 57 21.4 56.7 21.4 56.7L21.9 55.7C22 55.4 22.1 55.6 22.1 55.6L22.4 55.8C22.7 56.1 22.2 56.8 22.2 56.8C22.2 57.1 21.6 57 21.6 57Z" fill="black"/>
<path d="M34.5 57.6C34.5 57.6 33 57.5 33.2 59.1C33.3 60.8 34.9 60.4 34.9 60.4C34.9 60.4 35.8 60.1 35.7 58.8C35.7 57.8 34.5 57.6 34.5 57.6ZM34.5 60C34.5 60 34 60.1 34 59C33.9 57.9 34.5 58 34.5 58C34.5 58 35.1 58.1 35.1 58.9C35 60.1 34.5 60 34.5 60Z" fill="black"/>
<path d="M43.6 58.2C43.6 58.2 43.3 58.1 42.9 57.6C42.9 57.6 42.4 57 42.1 57C42.1 57 42.7 56.4 42.5 55.8C42.5 55.8 42.5 54.9 41.2 55.1L40.4 55.3C40.4 55.3 40.2 55.3 40.3 55.7C40.3 55.7 40.6 57.9 40.4 58.5C40.4 58.5 39.9 57.7 39.7 57.5C39.7 57.5 39 56.4 39 56.2C39 56.2 39.1 55.6 38.8 55.9C38.8 55.9 38.3 56.2 38.1 56.1C38.1 56.1 37.7 56 38.2 56.5C38.2 56.5 38.5 56.6 39 57.5L40.2 59.3C40.2 59.3 40.4 59.7 40.7 59.5C40.7 59.5 41 59.5 41 59.1V57.4C41 57.4 41 56.9 41.6 57.3C41.6 57.3 41.7 57.4 42.3 58.1C42.3 58.1 42.8 58.9 43.5 58.6C43.7 58.6 44 58.4 43.6 58.2ZM41.5 56.9C41.2 57.1 41.2 56.8 41.2 56.8L41.1 55.8C41 55.4 41.4 55.5 41.4 55.5C41.8 55.5 41.8 56.2 41.8 56.2C42 56.7 41.5 56.9 41.5 56.9Z" fill="black"/>
<path d="M45.4 57.1001L44.1 54.5001C43.9 54.2001 44.5 54.3001 44.5 54.3001C44.9 54.2001 44.5 53.9001 44.5 53.9001C44.3 53.6001 44.1 53.9001 44.1 53.9001C44 54.0001 42.7 54.6001 42.7 54.6001C42.3 54.7001 42.4 54.9001 42.4 54.9001L42.5 55.2001C42.7 55.5001 42.8 55.2001 42.8 55.2001L43 54.9001C43.3 54.7001 43.4 54.9001 43.4 54.9001C43.4 55.0001 43.7 55.6001 43.7 55.6001C43.9 55.9001 43.7 55.9001 43.7 55.9001L43.3 56.2001C42.9 56.4001 43.3 56.7001 43.3 56.7001C43.5 56.9001 44 56.5001 44 56.5001C44.3 56.3001 44.3 56.5001 44.3 56.5001L44.7 57.2001C44.9 57.6001 44.7 57.6001 44.7 57.6001H44.3C43.9 57.7001 44.1 58.1001 44.1 58.1001C44.2 58.4001 44.6 58.2001 44.6 58.2001L45.7 57.6001C45.9 57.4001 45.4 57.1001 45.4 57.1001Z" fill="black"/>
<path d="M46.7 54.1C46.7 54.1 45.7 54.1 46.1 53.4C46.1 53.4 46.8 52.8 47 53.4C47 53.4 47 53.9 47.4 53.5C47.4 53.5 47.7 53.2 47.4 52.9C47.4 52.9 47.2 52.2 46 52.7C45.1 53.1 45.5 54.1 45.5 54.1C45.5 54.1 45.6 54.8 47.1 54.9C47.1 54.9 48.3 54.9 47.8 55.8C47.8 55.8 47.5 56.2 46.9 56C46.9 56 46.2 55.7 46.2 56.4C46.2 56.4 46.3 56.8 47.3 56.8C47.3 56.8 48.8 56.6 48.6 55.2C48.4 55.1 48.4 54.2 46.7 54.1Z" fill="black"/>
<path d="M50.6 54.1C50.3 54 50.1 53.8 50.1 53.8L48.6 51.8C48.4 51.6 48.6 51.6 48.6 51.6C48.7 51.5 49.1 51.4 49.1 51.4C49.4 51.2 49.1 51 49.1 51C48.9 50.7 48.7 51 48.7 51L47.4 52C47.1 52.2 47.2 52.4 47.2 52.4L47.3 52.7C47.5 53 47.6 52.6 47.6 52.6C47.6 52.5 47.8 52.2 47.8 52.2C48 52 48.1 52.2 48.1 52.2L49.4 54.1C49.6 54.3 49.7 54.8 49.7 54.8C49.9 55 50.3 54.7 50.3 54.7L50.6 54.5C50.7 54.4 50.9 54.2 50.6 54.1Z" fill="black"/>
<path d="M51.2 49.6C51.2 49.6 51 49.3 51 48.9C51 48.9 51 48.4 50.7 48.8L50.3 49.2C50.3 49.2 50 49.6 50.3 49.7C50.3 49.7 50.5 49.6 50.7 50.1L51.7 52.3C51.7 52.3 51.8 52.4 51.6 52.4L50 51.6C50 51.6 49.7 51.4 49.5 51.7C49.5 51.7 49.1 52 49.7 52.3L51.8 53.2C51.8 53.2 51.9 53.4 52.2 53.2L52.5 53C52.5 53 52.7 52.9 52.5 52.5L51.2 49.6Z" fill="black"/>
<path d="M52.7 47.3C52.7 47.3 52 47.2 51.5 47.8C51.5 47.8 51.3 48.1 51.2 48.1C51.2 48.1 50.9 48.4 51.3 48.6C51.3 48.6 51.9 48.8 53.3 50.5C53.3 50.5 53.4 50.5 53.5 51C53.5 51 53.6 51.6 54 51.2L54.9 50.1C54.9 50.1 55.4 49.3 54.6 48.6C54.8 48.7 53.6 47.3 52.7 47.3ZM54.2 50.3L52.2 48.5C51.7 48.3 52.1 47.9 52.1 47.9C52.4 47.6 53 48.1 53 48.1C53.7 48.5 54.3 49.3 54.3 49.3C54.7 49.8 54.2 50.3 54.2 50.3Z" fill="black"/>
<path d="M56.3 48C56.3 48 56.1 48 55.5 47.6C55.5 47.6 53.9 46.4 53.6 46.2C53.6 46.2 53.2 45.6 52.8 46.1C52.8 46.1 52.5 46.4 53 46.6L55.7 48.5C55.7 48.5 55.9 48.8 56.1 48.6L56.3 48.4C56.4 48.4 56.7 48.2 56.3 48Z" fill="black"/>
<path d="M59 43L56.1 42.3C56.1 42.3 55.4 41.9 55.3 42.3C55.3 42.3 55.1 42.6 55.5 42.9L56.1 43.5C56.1 43.5 56.4 43.7 56 43.7L55.2 43.5C55.2 43.5 54.8 43.3 54.7 43.7C54.7 43.7 54.4 43.9 54.9 44.4C54.9 44.4 56.6 46 56.6 46.2C56.6 46.2 56.1 46.1 54.2 45.3C54.2 45.3 53.8 44.8 53.5 45.4C53.5 45.4 53.2 45.8 53.8 45.9L56.9 47C56.9 47 57.3 47.1 57.4 46.9C57.4 46.9 57.7 46.6 57.4 46.3L55.7 44.4C55.7 44.4 55.5 44.3 55.8 44.3L57.4 44.7C57.4 44.7 57.8 44.7 57.6 44.4L56.3 43C56.3 43 58.8 43.4 58.8 43.8C58.8 43.8 59.1 44.1 59.2 43.7L59.3 43.4C59.3 43.4 59.6 43 59 43Z" fill="black"/>
<path d="M26.4 2.90002C26 2.90002 25.7 3.20002 25.8 3.50002C25.8 3.80002 26.1 4.10002 26.4 4.10002C26.7 4.10002 27 3.80002 27 3.50002C27 3.10002 26.8 2.90002 26.4 2.90002Z" fill="black"/>
<path d="M36 2.59998C35.6 2.59998 35.3 2.89998 35.4 3.19998C35.4 3.49998 35.7 3.79998 36 3.79998C36.3 3.79998 36.6 3.49998 36.6 3.19998C36.6 2.89998 36.3 2.59998 36 2.59998Z" fill="black"/>
<path d="M55.8 17.2C55.8 17.5 56.1 17.8 56.4 17.8C56.7 17.8 57 17.5 57 17.2C57 16.9 56.7 16.6 56.4 16.6C56 16.5 55.7 16.9 55.8 17.2Z" fill="black"/>
<path d="M63.2 30.7C63 13.7 48.9 0 31.6 0H31.2C13.9 0.3 0 14.1 0 31C0 31.1 0 31.3 0 31.4C0.2 48.4 14.3 62 31.6 62C31.7 62 31.9 62 32 62C49.3 61.8 63.2 47.9 63.2 31C63.2 31 63.2 30.8 63.2 30.7ZM0.7 35.4C1 35.6 1.3 35.7 1.6 35.9C1.9 36.1 2.3 36.2 2.6 36.3C2.3 36.4 2 36.6 2 37C2 37 2 37.5 2 37.6C2 37.9 1.9 38.1 1.8 38.4C1.7 38.7 2 39.2 2.1 39.4C2.1 39.4 2 39.7 2 39.8C1.9 40.5 2.7 41.3 3.2 41.6C3.3 41.9 3.6 42.1 3.9 42.3C4.1 42.4 4.4 42.5 4.3 42.7C3.5 42.4 2.8 41.9 2.1 41.3C1.6 39.5 1 37.5 0.7 35.4ZM3.7 37.1C3.7 37.5 3.5 39.1 3.8 39.7C3.6 39.8 3.3 40.1 3.3 40.4C3 40.2 3 39.8 3 39.7C3 39.6 3 39.5 3 39.4C3 39.2 2.9 38.8 2.8 38.7C2.7 38.6 2.7 38.4 2.7 38.3C2.7 38.1 2.7 38 2.8 37.9C2.9 37.7 2.9 37 2.9 37C2.8 36.9 2.7 37.1 2.7 37.1C2.7 37.1 2.7 37.7 2.6 38C2.5 38.1 2.5 38.2 2.5 38.4C2.5 38.6 2.6 38.8 2.7 38.9C2.8 39.3 2.7 39.7 2.7 39.8C2.7 39.8 3.2 40.8 3.3 41.1V41.3C2.1 40.2 2.5 39.4 2.4 39.4C2.4 39.4 2.3 39.1 2.3 39C2.2 38.7 2.2 38.3 2.3 38C2.4 37.8 2.5 37.5 2.4 37.2C2.2 36.5 2.8 36.4 3 36.3C3.1 36.3 3.5 36.4 3.7 36.4C3.7 36.7 3.7 36.9 3.7 37.1ZM3.9 37C3.9 36.8 4 36.6 4.1 36.5C4.2 36.5 4.8 36.6 5 36.7C5 37 5.1 37.8 5.9 38.6C5.9 38.8 5.6 39 5.5 39.3C5.4 39.7 5.1 40.2 5.1 40.6C4.9 40.5 4.8 40.4 4.7 40.3H4.6C4.5 39.8 5.5 39.1 5.2 38.9C5.1 38.9 5.1 38.9 5 39C4.8 39.3 4.4 39.7 4.4 40.1C4.2 40 4.1 39.8 4 39.6C4 39.4 4 39.2 3.9 38.9C4 38.7 4.2 38.4 4.4 38.2C4.4 38.2 4.5 38.2 4.5 38.1C4.5 38 4.6 38 4.6 37.9C4.7 37.8 4.7 37.8 4.7 37.7C4.5 37.6 4.5 37.6 4.3 37.7C4.2 37.8 4.1 37.9 4.1 37.9C4 38 3.9 38.1 3.8 38.1C3.9 37.8 3.9 37.4 3.9 37ZM10.5 36.5C10.8 36.7 10.7 36.9 10.6 37.2C10.5 37.4 10.3 37.5 10.3 37.7C10.2 37.9 10.4 38.2 10.4 38.6C10.4 38.7 10.6 39.1 10.6 39.2C10.6 39.4 10.2 39.6 9.8 39.6C9.7 39.6 9.6 39.8 9.6 39.9C9.6 40.1 9.6 40.2 9.5 40.4C9.4 40.7 9.1 40.8 8.9 41C8.7 41.1 8.7 41.3 8.6 41.5C8.6 41.6 8.2 41.8 7.9 41.8C7.5 41.8 7.7 42.4 7.6 42.4C7.6 42.5 7.4 42.6 7.3 42.6C7.1 42.7 7 43 7 43.3C6.9 43.3 6.8 43.3 6.7 43.3C6.6 42.7 6.9 42 7.1 41.4C7.4 40.6 7.7 39.9 8.1 39.1C8.6 38.2 9.1 37.3 9.6 36.4C9.6 36.5 9.5 36.3 9.4 36.4C8.8 37.3 6.8 40.8 6.7 41.3C6.7 41.4 6.5 41.4 6.4 41.3C6.3 41.1 6.3 40.9 6.4 40.7C6.3 40.7 5.9 41 6.3 41.6C6.3 41.8 6.1 42.4 6.5 42.6C6.6 42.8 6.7 43.2 6.4 43.2C6.1 42.9 5.9 42.5 5.9 42.1C5.9 42 6 41.8 5.9 41.6C5.8 41.4 5.6 41.2 5.7 41C5.7 40.9 6 40.4 5.8 40.2C5.3 39.8 5.6 39.4 5.8 39C5.9 38.9 6.3 38.8 6.1 38.3C6.1 38.2 6 38.1 6 37.9C5.9 37.5 6.2 37.2 6.6 37C6.8 36.9 7.4 36.4 7.5 36.4C8.4 36.4 8.3 36.1 8.5 35.9C8.6 35.7 8.7 35.6 8.9 35.7C9.1 35.7 9.2 35.7 9.3 35.7C9.6 35.6 9.9 35.3 10.2 35.4C10.4 35.4 10.3 35.6 10.3 36C10.3 36.2 10.3 36.4 10.5 36.5ZM5.9 38.4C5.7 38.2 5.1 37.1 5.3 36.7C5.4 36.7 5.5 36.8 5.7 36.8C5.9 36.9 6.2 36.9 6.3 37.1C6.3 37.2 5.4 37 5.9 38.4ZM4 39.9C4.2 40.1 4.3 40.2 4.5 40.3C4.7 40.4 4.9 40.6 5.2 40.7C5.2 40.9 5.3 40.9 5.3 41.2C5.3 41.5 5.2 41.9 5.2 42.2C5.2 42.5 5.4 42.9 5.7 43.2C5.5 43.2 5.3 43.1 5.1 43.1C5.1 42.5 4.1 42.3 4.1 42.2C3.9 42.1 3.8 41.9 3.7 41.8C3.5 41.5 3.6 41.1 3.5 40.8C3.4 40.1 4 39.9 4 39.9ZM32.1 61.7H31.7C18.4 61.7 7.1 53.6 2.6 42.2C5.6 45 8.6 42.9 8.8 42.7C10.8 46.3 13.7 49.5 17.2 51.8C19.9 53.5 22.8 55 26 55.6C26.1 56 26.3 56.4 26.7 56.5C27 56.5 27.2 56.4 27.2 56.4C27.4 57.4 28.9 56.2 29.2 56C29.2 56 27.5 56.9 27.4 56.4C27.4 56.3 27.5 56.2 27.6 56.1C27.8 56 28.3 55.6 28.3 55.6C27.6 56 27.2 56.2 27.2 56.2C26.9 56.2 26.6 56.2 26.5 55.9C26.4 55.7 26.5 55.5 26.5 55.5C26.8 55.5 27.1 55.4 27.4 55.3C28.9 54.9 30.8 53.3 30.9 52.7C32.3 52.1 34.7 51.8 35.5 51.7C35.8 52.2 36.1 52.6 36.2 53.1C36.4 53.7 36.1 54.4 35.5 54.7C35.4 54.8 33 56.1 32.9 56.2C32.3 56.7 31.1 56.9 31.1 56.9C31.1 56.9 30.6 57.3 30.3 57.2C29.8 57.1 30.4 56.7 30.5 56.5C30.5 56.5 29.7 57.1 29.3 57C29 56.9 29 56.8 29.2 56.6C29.5 56.4 29.8 56.1 29.8 56.1C29.8 56.1 28.9 56.6 28.7 56.7C28.3 57 28.3 56.7 28.3 56.7C28.3 56.8 28.3 57.2 28.9 57.1C29.1 57.5 29.6 57.4 29.9 57.2C29.9 57.7 30.3 57.6 30.7 57.5V57.6L30.6 60.4C30.6 60.4 30.6 60.7 30.6 60.8C30.6 60.8 30.3 61.2 30.8 61.2H31.3C31.3 61.2 31.7 61.3 31.6 60.9V59.6C31.6 59.6 32 59.2 32.3 60.2C32.3 60.2 32.8 61.6 33.9 61.1C33.9 61.1 34.2 60.9 33.8 60.8C33.8 60.8 33.4 60.9 32.9 59.9C32.9 59.9 32.8 59.6 32.5 59.4C32.5 59.4 33.1 59.3 33.1 58.4C33.1 58.4 33.2 57.7 32.3 57.6L31.2 57.5C31.3 57.4 31.4 57.4 31.4 57.4C32.4 57.3 33 56.8 33.2 56.6L35.2 56.3C35.4 56.5 35.7 56.4 35.9 56.4C35.9 56.6 36 56.7 36.2 56.7C36.2 56.7 36.1 56.8 36 56.8C36 56.8 35.7 56.9 36 57.2C36 57.2 36.2 57.2 36.4 58.7C36.4 58.7 36.6 59.9 36.6 60.3C36.6 60.3 36.4 60.9 36.8 60.8C36.8 60.8 36.9 60.7 37.6 60.7C37.6 60.7 38.5 60.5 38.7 60.4C38.7 60.4 39.5 60.2 39.3 59.1C39.3 59.1 39.2 58.5 38.6 58.4C38.6 58.4 38.4 58.4 38.5 58.2C38.5 58.2 39.1 57.1 37.9 56.6C37.9 56.6 37.9 56.6 37.8 56.6C38.2 56.3 38.5 55.9 38.8 55.6L38.9 55.5C43.5 54.2 47.8 51.5 50.9 48.1C53.7 45.1 55.7 41.4 56.8 37.5C57 37.4 57.2 37.3 57.3 37.2C57.2 37.3 57.2 37.5 57.1 37.7C57 38 57.2 37.7 57.2 37.7C57.5 37.3 58.8 36.4 58.9 36.3C58.8 36.6 59 37.3 59 37.8C58.9 38.4 58.7 38.9 58.5 39.5C58.5 39.5 58.5 39.5 57.9 41.2C57.8 41.5 58 41.8 58.1 42L57.1 41.7C56.9 41.6 56.8 41.6 56.6 41.6C56.5 41.6 56.3 41.5 56.2 41.5L55.9 40.7C55.8 40.6 55.7 40.6 55.7 40.8C55.7 41.6 56.4 41.7 56.4 41.8C56.6 41.9 57.6 41.8 57.9 42.2C57.9 42.2 57.9 42 58 41.8C58 41.7 58.1 41.6 58.1 41.4C58.1 41.3 58.2 41.1 58.2 41C58.2 40.8 59.7 37.5 60.6 36.2C61 35.7 61.4 35.6 61.8 35.4C61.8 35.6 61.9 35.8 61.9 36C61.9 37.4 61.4 38.8 60.7 40C60.5 40.4 60.1 40.6 59.9 41H59.7H59.5H59.4C59.4 41 59.4 41 59.4 40.9C59.4 40.9 59.4 40.9 59.4 40.8C59.5 40.7 59.5 40.5 59.6 40.3C59.8 39.9 60.1 39.6 60.3 39.2C60.4 39 60.5 38.8 60.7 38.5C60.8 38.3 60.9 38 61 37.8C61.1 37.6 61.2 37.3 61.3 37.1C61.4 36.8 61.6 36.6 61.6 36.3C61.6 36.2 61.6 36.1 61.5 36C61.4 36 61.2 36 61.1 36.1C61 36.2 60.9 36.4 60.8 36.6C60.7 36.8 60.7 37 60.6 37.2C60.5 37.4 60.4 37.7 60.3 37.9C60.3 38.1 60.3 38.4 60.1 38.7C60 39 59.9 39.2 59.7 39.5C59.6 39.7 59.5 40 59.3 40.3C59.2 40.5 59.2 40.6 59.1 40.7C59.1 40.8 59 40.9 59 40.9C58.7 41.4 58.2 41.8 58.2 42.3C58.2 42.3 58.3 42.3 58.4 42.2C58.7 41.7 59 41.3 59.4 41.1C59.6 41.1 59.9 41.1 60.1 41.3C60.1 41.3 60.4 41.6 59.7 42.3C59.5 42.3 59.3 42.3 59 42.2C58.5 42.1 58.6 42.4 58.6 42.4C59.3 42.5 60.1 42.6 60.7 42.3C56.2 53.5 45.1 61.5 32.1 61.7ZM30.9 49.3C30.8 49 30.5 48.6 30.5 48.3C30.4 48.1 30.2 48.3 30.1 48.4C29.9 48.6 29.4 49.4 29.2 49.5C29.1 49.5 29 49.4 29 49.3C29 49.2 29.1 49.1 29.1 49.1H28.1C28 49.1 27.4 49.2 26.7 49C26.2 48.9 25.8 48.9 25.3 48.8C24.9 48.8 24.5 48.8 24.2 48.9C24.1 48.9 23.7 48.9 23.7 48.3C23.7 48.1 23.3 48 23.2 47.9C22.8 47.7 22.2 47.7 22.2 47.6C22 47.6 22 47.3 22 47.2C21.9 46.9 21.9 44.6 22 43.9C22.1 42.3 21.8 40.7 21.5 39.1C21.4 38.4 21.2 37.6 21.2 36.9C21.3 34.4 23.8 33.2 23.8 33.1C24.5 33.1 26 33.1 26 33.1C25.7 33.2 22.5 34.3 22.9 36.9C23.1 38.1 23.7 39.1 24.3 40.1C25 41.2 26.9 43 26.9 43C25.8 41.8 24.6 39.9 24.1 38.9C22.1 35.5 24.1 34.4 24.6 34C25.4 33.3 27 33 27 33C27.1 33.7 28.1 33.5 28.1 33.5C28.3 33.7 31.2 36.7 31.3 36.7C33.1 36.7 32.3 36.8 36 36.9C36.4 36.9 40.2 37 40.4 36.6C40.5 36.4 40.4 35.8 40.3 35.7C40.1 35.3 39.8 34.9 39.5 34.5C39.2 34.2 38.9 33.8 38.6 33.5C39.2 33.8 39.7 34.4 40.1 34.9V34.8C39.3 33.3 38.2 33.1 38.2 33.1C38.1 33 37.9 32.8 37.8 32.7C37.7 32.6 37.5 32.4 37.3 32.3C38.1 31.9 38.9 32.3 39 32.3C39.4 32.3 39.8 32.5 40.2 32.6C40.5 32.7 41.4 33.3 41.6 33.3C42.3 33.5 43 33.9 43.6 34.5C43.9 34.8 44.2 35.1 44.5 35.4C45 36.2 44.9 37.2 44.3 37.9C44.1 38.2 43.1 39.7 41.6 39.5C41.1 39.5 40.6 39.5 40.1 39.5C38.4 39.5 33.6 39.2 32.9 39C32.2 38.8 31.6 38.5 31.2 38C30.7 37.4 30.2 37 29.7 36.4C29.1 35.6 28.2 34.9 28.2 34.9C28.2 34.9 29.3 36.2 29.6 36.6C30 37.1 31 38.4 31.7 38.9V39.1C31.6 39 30.1 38.6 28.9 36.9C28.8 36.8 28.7 36.8 28.8 37L29.3 37.7L28.5 37.2C28.5 37.2 27.8 37 27.8 37.4C27.8 37.9 29.9 38.3 30.6 38.8C30.5 38.8 28.8 38.2 27.9 38.6C27.3 38.9 25 38.5 25 38.5C26.9 39.2 27.8 38.8 29.2 38.8C29.6 38.8 29.9 39 30.3 39C30.4 39 30.7 39 30.8 38.9C30.9 39 31.1 39.1 31.2 39.1C32 40 32.6 41.3 32.4 42.5C32.2 43.6 31.1 44.3 30.1 44.4C30.1 44.4 31.6 44.7 32.3 43.6C33.1 42.5 32.5 40.6 32.5 40.6C33.2 41.3 33.5 42.3 33.4 43.2C33.3 43.9 33.1 44.5 32.8 45.1C32.7 45.2 32.7 45.4 32.6 45.5L32.5 45.6C32.5 45.6 33.5 45.1 33.7 43C33.7 43.1 33.7 43.2 33.7 43.3C33.8 44.2 33.7 45.5 34 46C34 46 33.8 44.7 34 43.6C34.2 43.8 35.2 44.8 35.2 44.9C35.4 45.3 34.3 46.5 34.3 46.8C34.3 47 34.5 48.2 34.6 48.6C34.7 49.4 34.9 50.1 35.2 50.8C35.3 50.9 35.3 51.1 35.4 51.2C33.9 51.1 31.8 51.5 29.8 52.4C29.2 52.7 28.6 53 28.7 53.2C28.8 53.4 29.1 53.1 29.1 53.1C29.3 52.8 30.4 52.4 30.4 52.4C30.4 52.5 29.8 53.2 29 53.7C29 53.7 28.9 53.8 28.8 53.8C28.7 53.9 28.5 53.9 28.3 53.7C28 53.3 29.1 51.9 29.2 51.8C29.4 51.7 29.4 51.6 29.4 51.4C29.4 51.3 29.6 50.9 29.6 50.8C29.7 50.7 29.8 50.5 29.8 50.3C29.9 50 30.1 49.7 30.4 49.4C30.9 49.7 30.9 49.4 30.9 49.3ZM25 31.1C24.8 31.1 24.5 31 24.4 30.8C24.7 30.6 25.5 30.5 25.5 30.5C25.6 30.5 26.7 31.4 27 31.8C27 31.8 26.3 30.9 25.9 30.5C25.6 30.2 25.3 30 25 29.8C25.4 29.8 25.8 29.8 26.2 29.8C26.2 29.8 26.9 30.5 27.1 30.9C27.3 31.2 27.6 31.7 27.6 32.1C27.6 32.2 27.4 32.4 27.4 32.6C27.4 32.9 27.7 32.9 27.8 33.2L28 33.1C27.9 32.8 27.6 32.8 27.6 32.5C27.6 32.3 27.8 32.1 27.8 31.9C27.9 31.5 27.5 31 27.3 30.7C26.9 30 26.3 29.4 25.8 28.8C28.3 29 30.7 29.3 33.2 29.5C33.7 29.5 34.4 30.9 34.4 31.1C33.1 30.8 31.7 30.7 30.4 30.7C29.9 30.7 29.1 30.6 28.6 30.8C28 30.9 28 31.6 28 31.6C28 31.6 28.2 30.9 29.2 31C29.8 31 30.7 31 31.3 31C33.4 31.1 35.6 31.3 37.2 32.5C37.8 33 39.7 35.2 39.9 35.8C40.3 36.6 40 36.6 39.9 36.7C39.8 36.8 39.1 36.8 39.1 36.8C38.3 36.8 37.6 36.8 36.9 36.8C35.3 36.8 31.6 36.7 31.4 36.7C31.3 36.7 31.3 36.7 31.2 36.7C30.7 36.2 30.3 35.8 29.8 35.3C29.2 34.8 28.7 34.2 28.2 33.7C28.1 33.6 28.1 33.5 27.9 33.5C26.9 33.7 26.9 32.9 26.9 32.9C25.6 32.9 24.7 32.8 23.2 32.9C23 32.9 22.7 33.1 22.5 33.1C22.1 33.1 22.5 32.7 22.7 32.5C23 32.2 23.5 31.9 23.6 31.5C23.7 31.3 23.9 31.1 24.1 30.9C24.1 30.9 24.5 31.1 24.7 31.2C25 31.3 26.6 32.1 27 32.3C27.1 32.4 25.5 31.3 25 31.1ZM46.4 25C46 24.4 45.8 23.8 45.6 23.2C47 23.4 48.9 23.2 49.6 22.9C50.6 24.9 51.1 27.1 51.5 29.2C51.6 30.2 51.7 31.2 51.6 32.2C51.6 33.4 51.4 34.6 51.2 35.8C51 36.8 50.7 37.8 50.2 38.7C50.1 38.9 49.9 39 49.7 39.2C49.2 39.6 48.8 39.7 48.2 40.2L47.9 40.3C47.7 40.4 47.6 40.8 47.5 41.1C47.3 41.5 46.7 42 46.5 42.1C46.3 42.2 46.1 42.2 46.1 41.8C46.1 41.6 47.7 39.4 47.8 39.1C47.9 38.9 48.1 38.7 48.3 38.6C48.4 38.5 48.5 38.5 48.6 38.4C48.8 38 48.7 35.9 48.7 35.4C48.6 34.5 48.6 33.7 48.5 32.8C48.4 31.9 48.3 31.1 48.2 30.2C48.1 29.8 48.1 29.5 48.1 29.1C48.1 28.7 47.9 27.5 47.8 27.2C48 27.4 48.4 27.7 48.4 27.7C48 27.2 46.8 25.9 46.4 25ZM49.2 21.2C48.1 22.2 46.1 22.2 44.8 21.8C44.7 21.8 44.7 21.8 44.7 21.8C44.6 21.5 44.5 21.2 44.5 21.1C47.5 21.4 48.8 20.4 49 19.8C49.1 19.4 48.1 17.7 47.9 17.5C46.8 14.1 47.7 13.3 48.3 13.1C48.8 13 49.3 13.4 49.4 13.5C51.3 15.5 53.4 18.2 54.9 21.3C54.8 21.2 53.9 20.5 53.2 21.1C53.1 21.2 52.8 21.8 53.3 22.2H53.4C53.4 22.3 53.4 22.5 53.5 22.6C53.1 23.1 52.8 23.7 52.6 24.3C52.5 24.7 52.5 25.1 52.8 25.4C53.1 25.7 54.2 25.8 54.2 25.8C54.2 25.8 54.7 30.4 54.7 32.3L52.6 34C52.5 33.9 52.6 32.9 52.5 32.5C52.5 30.2 52.3 27.8 51.7 25.5C51.5 24.6 51 23.6 50.6 22.8C50.6 22.8 51.4 24.9 51.6 25.8C52.2 28.1 52.4 30.4 52.4 32.7C52.4 33.1 52.4 33.6 52.4 34.1C52.4 34.2 52.4 34.3 52.5 34.2C52.6 34.2 54.7 32.4 54.7 32.4C54.8 32.6 54.9 32.8 55.2 32.9C55.4 32.9 55.6 32.9 55.8 32.8C56.1 32.7 56.5 32.7 56.8 32.9C56.8 33 56.8 33.1 56.8 33.1C56.5 33 56.1 33.3 56 33.2C56.4 33.4 56.6 33.1 56.8 33.2C56.8 33.4 56.8 33.5 56.8 33.6C56.7 33.5 56.5 33.4 56.5 33.4C56.5 33.4 56.6 33.7 56.8 33.8C56.8 34 56.8 34.1 56.7 34.3C56.7 34.3 56.3 34.1 56.2 33.8H56C55.9 33.9 56.4 34.4 56.7 34.4C56.7 34.7 56.6 34.9 56.6 35.2C56.3 35.3 55.8 35.4 55.7 35.3C55.8 35.3 56.1 35 56 35C55.8 35 55.4 34.8 55.4 34.8C55.4 34.9 55.5 35 55.5 35.2C55.3 35.2 54.8 35.1 54.7 35.1C54.6 35.1 54.4 35.2 54.3 35.3C54 35.7 52.8 36.8 52.7 36.9C52.6 36.8 52.7 36.7 52.7 36.6C53 35.6 52.6 35.1 52.6 35.1C52.6 35.7 52.5 36.2 52.1 37.5C52 37.9 53.1 37.2 53.4 36.9C54.5 35.7 54.8 36 54.8 35.9C54.7 37.2 54.4 38.4 54.1 39.7C53.9 40.3 53.8 40.9 53.6 41.5C53.5 41.7 53.5 41.9 53.4 42.1C53.4 42.6 54 42.4 54.4 42.3C53 45.1 50.9 47.6 48.5 49.8C47.9 50.3 47.4 50.7 46.8 51.2C46.1 50.9 46.8 49.1 47 48.6C47.5 47.4 48.1 46.3 48.7 45.2C49 44.6 49.2 44 49.5 43.5C50.2 42.2 50.2 41.9 50.2 41.8C50.4 41.8 50.6 41.7 50.8 41.6C50.8 41.7 50 43.6 49.6 44.4C49.2 45.2 48.9 46 48.5 46.7C48.2 47.3 47.8 47.8 47.5 48.4C47.1 49.2 46.8 50.1 46.7 51C46.7 51 46.8 51.2 46.9 50.9C47.1 49.4 48.1 48.3 48.8 46.9C49.6 45.3 50.4 43.7 50.9 42C51 41.7 51.1 41.4 51.1 41C51.1 40.8 51.2 40.8 51.3 40.7C51.5 40.5 51.7 40.2 51.6 40L51.3 39.9C51.3 40.1 51.2 40.3 51 40.5C50.9 40.6 50.7 40.8 50.7 40.9C50.7 41 50.7 41.1 50.7 41.3C50.7 41.3 50.1 41.6 49.9 41.5C49.8 41.4 49.7 41.3 49.6 41.3C49.3 41.1 48.7 41.3 48.4 41.4C47.9 41.7 47 42.4 46.9 41.8C47.1 41.8 47.4 41.7 47.8 41.4C48.5 40.8 49.9 40.7 49.9 40.7C49.9 40.6 50.3 40.5 50.3 40.5C49.9 40.4 48.6 40.8 47.3 41.6C47.7 41.2 47.9 40.9 48.1 40.5C48.1 40.5 49.5 39.7 50 39.2C50.3 38.9 50.3 39.2 50.5 38.8C51.1 37.5 51.5 35.7 51.6 34.3C51.8 32.5 51.8 30.6 51.5 28.8C51.2 26.8 50.7 24.7 49.7 22.9C49.8 22.9 49.9 22.8 49.9 22.8C50 22.7 50 22.5 49.9 22.6C48.6 23.1 46.4 23.2 45.9 23.2C45.6 23.2 45.3 23.2 45 22.9C45 22.9 44.8 22.5 44.6 22.2C46.1 22.6 48.5 22.7 49.2 21.5C49.4 21.2 49.3 21.2 49.2 21.2ZM56.1 27.2C56.1 27.2 56.4 27 56.6 27.2C56.9 28.9 56.9 30.7 56.8 32.5C56.6 32.5 56.4 32.5 56.3 32.5C56.5 31.3 56.1 27.1 56.1 27.2ZM56.4 26.6C56.1 25.5 55.3 24.6 54.2 24.2C54.8 24.5 56 25.7 56.2 26.7C56.1 26.5 54.3 24.1 53.3 24.7C53 24.9 53.4 25.1 53.4 25.1L53.7 24.9L53.9 25C54 25.5 54.2 25.3 54.3 25.4C53.9 25.4 52.7 25.3 53 24.1C53.1 23.5 53.8 22.5 53.8 22.5C54 22.5 54.1 22.4 54.3 22.4C54.5 22.4 54.7 22.4 54.9 22.5C54.9 22.5 54.8 22.1 54.1 22.3C54 22.3 53.8 22.4 53.8 22.1C53.9 22.1 54.1 22.1 54.1 22C54.3 21.6 54.7 21.8 54.7 21.8C54.6 21.5 54.4 21.5 54.2 21.6C54 21.7 54 21.9 53.8 21.9C53.4 21.9 53.2 21.5 53.5 21.1C53.8 20.7 54.5 20.9 54.7 21.1C54.9 21.2 55.1 21.4 55.2 21.5C55.6 22.2 56.4 25.1 56.7 26.5L56.4 26.6ZM54.3 24.9C54.5 25 54.6 25.1 54.8 25.3C55.1 25.6 55.4 25.8 55.7 26.2C55.8 27 56 28.2 56 29C56.1 29.9 56.2 31.1 56 32.5C55.8 32.5 55 32.8 54.9 32.1C54.9 30.2 54.4 25.4 54.3 24.9ZM55.3 39.3C55.6 37.9 56 37.1 56.2 35.6C56.3 35.6 56.4 35.5 56.5 35.5C56.4 36.3 56.3 36.8 56 37.6C55.6 39.1 55.3 39.5 55.3 39.3ZM54.2 42C53.8 42.2 53.4 42.4 53.4 42C53.4 41.8 54 40.3 54.1 39.6C54.5 38.2 55 35.3 55.1 35.3C55.2 35.3 55.5 35.5 55.7 35.4C55.6 36.9 54.7 40.9 54.2 42ZM38.7 52.1C38.7 51.7 39 50.1 39.1 49.7C39.2 49.2 39.5 48.7 39.4 48.2C39.3 47.6 38.8 47.2 38.3 47C38 46.9 36.3 46.7 35.8 45.8C35.8 45.8 36 45.7 35.1 44.8C34.7 44.4 34.4 44.1 34 43.7C33.7 41.7 32.3 40.5 32.3 40.5C32.1 40.2 32 39.9 31.7 39.6C31.9 39.6 32.2 39.6 32.3 39.4C32.6 39.5 33 39.6 33.3 39.6C34.1 39.7 35 39.8 35.8 39.9C36.7 40 37.6 40.1 38.5 40.2C39.4 40.3 40.2 40.3 41.1 40.3C41.2 41 41.4 42.6 41.4 43.1C41.4 43.5 41.3 43.9 41.3 44.3C41.3 44.7 41.3 45.3 41.8 45.5C42.3 45.7 42.9 45.9 43.4 46.2C43.4 46.4 43.4 46.5 43.4 46.6C43.4 47 44.8 47.4 45.1 47.5C45.7 47.8 46.2 48.3 46.5 48.9C46.5 48.9 45.8 50.6 46.4 51.2C44.2 52.8 41.9 54 39.1 54.8C39 54.8 39 54.8 39 54.7C39.6 53.8 38.7 52.3 38.7 52.1ZM37.1 58.2C36.7 58.4 36.8 58 36.8 58L36.7 57.4C36.5 56.7 37 56.8 37 56.8C37.6 56.6 37.6 57.5 37.6 57.5C37.6 58.2 37.1 58.2 37.1 58.2ZM36.9 58.9C36.8 58.4 37.6 58.5 37.6 58.5C37.6 58.5 38.1 58.5 38.1 59.4C38.1 60.2 37.3 60.2 37.3 60.2C37 60.3 37 60 37 60C37.1 59.7 36.9 58.9 36.9 58.9ZM36.1 56.1C36 55.9 36.6 55.4 36.7 55.2C37 54.8 36.9 54.3 36.9 54.3C36.9 54.7 36.5 55.1 36.3 55.3C36.1 55.6 35.9 55.8 35.7 55.9C35.6 56 35.4 56 35.3 55.9C35.1 55.6 35.4 55.5 35.3 55.6C36.1 55.2 36.3 54.8 36.3 54.4C36.3 54.5 36 55.1 35.4 55.4C35.3 55.5 35.3 55.5 35.2 55.7C34.6 55.4 35.1 55.2 35.8 54.9C35.8 54.9 36.1 54.7 36.3 54.4C36.8 53.9 36.7 53.2 36.4 52.6C36.3 52.3 36.1 51.9 36 51.6C35.7 50.7 35.4 49.6 34.9 48.8C34.8 48.6 34.7 48.4 34.7 48.2C34.7 48 34.7 47.4 34.8 47.3C34.9 47.2 35.4 46.4 35.6 46.2C36.1 47.1 37.6 47.1 38 47.2C39.1 47.5 39.2 48.5 39.2 48.8C39.2 49.2 39 49.5 38.9 49.9C38.7 50.6 38.3 51.4 38.3 52.2C38.3 52.6 38.9 53.8 38.8 54.2C38.7 54.8 38.1 55.6 38 55.8C37.2 56.5 36.2 56.5 36.1 56.1ZM31.9 39.5C32 39.5 32.1 39.4 32.3 39.4C32.2 39.5 32.1 39.5 31.9 39.5ZM43.3 45.9C42.9 45.6 42.4 45.4 41.9 45.3C41.4 45.2 41.4 44.5 41.4 44.1C41.4 43.7 41.5 43.3 41.5 42.9C41.5 42.3 41.2 40.9 41.1 40.2C41.1 40.2 41.1 40.2 41.2 40.2C41.7 40.2 42.3 40.2 42.8 40.2C43 40.9 43.4 42.6 43.2 43.3C43.1 43.7 43.3 44.9 43.3 45.9ZM46.4 42.2C46.6 42.3 47.2 42.5 47.8 42.1C48.1 41.9 48.6 41.5 48.5 41.6C49.2 41.2 49.6 41.6 49.7 41.6C49.7 41.6 49.5 41.8 49.4 41.9C49.4 41.9 48.8 42.7 47.8 43.2C47.2 43.5 44.9 42.7 45.7 41.5C45.8 41.4 46 41.4 46 41.4C45.9 41.5 45.9 41.6 45.9 41.8C45.9 42.1 46.2 42.3 46.4 42.2ZM48.1 38.4C48 38.5 47.5 39.1 46.1 41.3C46.1 41.3 45.3 41.4 45.3 42.2C45.3 43.2 47.3 43.9 47.7 43.7C47.7 43.7 48.4 43.4 49.4 42.5C49.2 42.9 49 43.2 48.9 43.6C48.7 44.2 47 47.4 46.5 48.7C46.2 48.2 45.9 47.7 45.4 47.4C45.1 47.2 44.9 47.2 44.6 47.1C44.3 47 43.8 46.9 43.6 46.5C43.6 46.5 43.6 43.3 43.5 42.2C43.5 41.9 43.2 40.7 42.9 40.1C43.2 40.1 43.5 40.1 43.8 40.1C44.5 40.1 45.2 40 45.8 39.8C47.2 39.4 48 37.5 48.3 37.6C48.4 37.8 48.3 38.3 48.1 38.4ZM32.8 56.3C32.7 56.4 32.5 56.5 32.4 56.6C32.6 56.5 32.7 56.4 32.8 56.3ZM31.5 57.8C31.5 57.6 31.9 57.6 31.9 57.6C32.3 57.6 32.2 58.3 32.2 58.3C32.2 58.7 31.9 58.9 31.9 58.9C31.5 59.1 31.6 58.8 31.6 58.8L31.5 57.8ZM59.7 36.4C59.7 36.4 59.2 36.6 58.6 39.8V39.9C57.9 40.9 58 41.6 57.9 41.7C57.5 41.2 58.1 40.1 58.2 40V39.9C58.3 39.7 58.3 39.6 58.4 39.4C58.6 38.8 58.7 38.2 58.8 37.6C58.9 36.2 59.9 35.8 60 35.8C60.1 36.1 60 36.7 59.9 37C59.8 37.4 59.6 37.5 59.3 38.1C59.3 38.1 59.2 38 59.3 37.9C59.2 37.5 59.6 36.6 59.7 36.4ZM60.8 42C60.6 42.2 60.3 42.3 60.1 42.3C60.2 42.1 60.4 41.9 60.5 41.7C60.5 41.5 60.4 41.4 60.5 41.3C60.6 41.1 60.9 40.6 61.1 40.2C61.9 38.8 62.4 37 62.1 35.4C62.3 35.3 62.5 35.2 62.6 35.1C62.3 37.4 61.7 39.7 60.8 42ZM62.6 34.7C62.2 35.1 61.6 35.3 61.2 35.5C60.7 35.6 60.2 35.8 59.7 35.9C58.5 36.1 57.6 36.3 56.7 37C56.7 37 56.6 37 56.5 37C56.7 36.3 56.8 35.6 56.9 35C57.3 32.3 57.3 29.5 56.8 26.8C56.8 26.8 55.7 22 54.3 19.6C52.9 17.3 51.5 15.2 49.6 13.3C49.5 13.2 49 13 48.8 13C48.2 12.9 47.9 13 47.8 13.1C47.2 13.3 46.5 14.4 47.3 17C46.7 16.1 46 15.4 45.6 14.9C45.5 14.9 45.5 14.8 45.4 14.8L45.1 14.7C44.4 14.4 43.2 14 43.1 14C43 13.8 42.9 13.7 42.9 13.5C44.4 14.1 44.7 13.7 44.8 13.6C44.4 13.7 43 13.2 42.7 12.9C42.5 12.5 42.1 11.6 42.1 11.6C42.4 12.3 42.5 13.2 42.9 13.8C42.8 13.8 42.7 13.8 42.7 13.7C42.5 13.6 42.1 13.1 41.9 13C41.8 13 42 13.4 41.9 13.3C41.9 13.3 41.3 12.6 41.2 12.5C41.1 12.4 41.2 12.9 41.1 12.9C40.7 12.7 39.7 12.4 39.7 11.8C39.8 11.8 39.9 11.3 40 11.1C40.3 10.9 40.6 10.1 40.6 10H40.5C40.5 10 40.3 10.4 40.2 10.4C40.2 10.2 40.2 10.1 40.1 10C40 9.8 39 9.5 38.9 9.5H38.7C38.7 9.5 39.3 9.7 39.6 9.9C40.1 10.2 39.9 10.9 39.9 11C39.8 10.8 39.5 10.6 39.3 10.5C39.2 10.4 39 10.3 38.8 10.2C38.7 10.2 38.7 10.3 38.7 10.3C38.9 10.4 39.2 10.7 39.3 10.8C39.5 11 39.6 11.2 39.7 11.4C39.7 11.4 39.7 11.6 39.6 11.8C39.5 11.5 39.3 11.3 39.1 11.1C39 11 38.5 10.5 37.7 10.2C36.9 9.9 35.8 8.8 35.6 8.4C36 9.1 36.5 9.9 37.3 10.2C37.7 10.4 38.4 10.7 38.4 10.7C38.2 11.3 37.5 11.8 37.2 11.7C37.6 11.8 37.9 11.6 38.2 11.5C38.4 11.4 38.6 11.2 38.7 10.9C39.1 11.3 39.6 12.1 39.6 12.1C39.6 12.3 39.9 12.7 40 12.8C40.6 13.3 41.5 13.6 42.3 13.9C42.9 14.1 45.1 14.8 45.6 15C45.6 15.1 47.3 17.1 47.9 18.3C48.1 18.6 48.7 20.2 48.6 20.2C47.5 21.2 44.8 21.2 44.8 21.2C44.8 21.2 44.5 21 44.3 20.7C44.3 20.7 43.9 20.1 43.8 20C43.9 20.4 44.1 20.7 44.2 21C44.3 21.3 44.4 21.6 44.6 21.9C44.6 21.9 44.6 21.9 44.6 22C44.6 22 44.6 22 44.7 22.1C44.8 22.3 45 22.7 45 22.8C45 23.1 45.6 23.4 45.6 23.4C45.8 24.1 46.1 24.8 46.5 25.5C46.6 25.8 47.4 27.3 47.6 27.8C47.8 28.3 47.9 28.8 47.9 29.3C48 30.1 48.5 34.4 48.5 34.4C48.5 35.5 48.3 36.7 48 37.7C47.8 38.2 47.2 39.6 45.3 40C45 40.1 44.7 40 44.4 40.1H43.8C44.1 39.8 44.5 39.4 45 38.7C45.2 38.5 45.3 38.2 45.4 37.9C45.6 37.5 45.5 36.7 45.5 36.6C45.7 36.9 45.8 37.1 45.8 37.4C45.8 37.4 45.9 37.6 45.9 37.4C45.9 36.9 45.5 36.4 45.2 36C44.9 35.7 44.7 35.3 44.4 35C43.8 34.4 43.1 34 42.2 33.8C42.1 33.8 41.2 33.2 40.9 33.1C40.5 32.9 40 32.8 39.6 32.8C39.5 32.8 39.4 32.7 39.3 32.7C38.6 32.3 37.4 32.7 37.4 32.7C37 32.4 35.6 31.8 35.6 31.7C35.7 31.1 36 30.6 36.3 30.1C36.6 29.6 37.3 28.5 37.3 28.4C37.3 28.4 36.8 27.4 36.7 26.7C37.2 26.7 37.7 26.4 38.1 26.1C38 26.1 35.9 27.1 34.9 25.7L34.6 25.6C34.5 25.5 34.5 25.4 34.4 25.3C34.4 25.2 34.4 25 34.4 24.9C34.4 24.8 34.7 23.5 34.8 23.2C34.9 22.5 34.4 21.9 33.9 21.5C34 21.6 34.4 22.1 34.6 22.7C33.8 22.8 33 23.3 32.3 23.6C31.3 24 30.8 24.3 29.9 24.6C29.3 24.8 26.7 25.4 24.8 24.9C24.8 24.9 24.1 24.9 23.7 24.6C23.3 24 23.3 23.7 23.3 23.4C23.3 23 23.9 21.5 24.2 20.9C25.1 19 26.4 17.4 27.8 15.8C28 15.5 28.5 14.8 28.6 14.7C29.1 14.2 30.1 13.8 30.1 13.7C30.9 13.2 31.3 13.1 32.4 12.9C32.4 12.9 32.5 13.4 32.8 13.5C33.9 13.6 34.7 13.9 35 14.1C35.3 14.5 35.6 16 35.6 16.2C35.6 16.3 35.4 16.6 35.2 16.2C35.2 16.1 35.1 14.9 34.6 14.4C34.5 14.3 34.2 14.1 33.8 14.1C34.2 14.3 34.5 14.6 34.6 14.8C34.8 15.1 35 15.6 35.1 16.2C35.1 16.3 34.8 16.9 34.5 15.7C34.4 15.3 34.1 14.8 33.7 14.7C33.5 14.7 32.8 14.4 31.5 15.1C31.9 14.9 34 14.3 34.2 15.7C33.9 15.8 33.5 15.8 33.2 15.8C32.7 15.8 32.2 15.7 31.7 15.8C31.3 15.9 30.9 15.9 30.6 16.5C30.2 17.2 29.8 17.9 29.5 18.7C29.4 19 29.3 19.2 29.2 19.4C29.1 19.8 28.4 20.9 28.3 21.1C28 21.5 27.8 22 27.4 22.4H27.6C28.1 21.8 28.6 20.9 28.6 20.9C29.3 20.6 30.4 19.9 30.9 19.3C31.9 18.1 33.1 17.3 34.5 16.3C34.4 16.3 34.7 16.5 35 16.5L35.2 16.4C35.2 16.4 35.8 17 35.9 16.2C35.9 15.7 35.6 14.7 35.5 14.4C35.6 14.5 36 14.8 36.1 16.3C36.1 16.3 36.4 16.5 36.6 16.9C36.6 16.9 36.7 16.5 36.3 16.2C36.2 16.1 36.2 16 36.2 15.9C36.2 15.5 36.1 15.1 35.9 14.7C35.6 14.1 35 13.7 34.3 13.5C34.1 13.4 33.5 13.3 33.1 13.3C32.8 13.3 32.7 13.1 32.7 12.8C32.7 12.7 32.9 12.6 32.9 12.5C32.9 12.3 32.7 12.1 32.7 11.9C32.8 11.9 32.9 12 33.1 12C33.2 12 33.3 12.1 33.4 12.1C33.4 12.1 33.4 12.1 33.5 12C33.6 11.9 33.3 11.8 33.1 11.8C33 11.8 32.8 11.8 32.7 11.7C32.6 11.6 32.6 11.3 32.7 11.1L32.9 11.3C33.3 11.4 33.5 11.1 33.5 11C33.1 11.4 32.7 11 32.7 11C32.7 11 32.6 11 32.5 11.2C32 11.3 32.1 10.8 32.2 10.6C32.3 10.1 32.6 9.6 32.8 9.2C32.9 9 32.8 8.7 32.8 8.5C32.8 7.9 33.4 6.8 33.4 6.7C33.5 6.6 33.6 6.6 33.6 6.6C33.7 6.6 34 6.5 33.9 6.4H33.2L33 6.5C33.1 6.5 33.2 6.5 33.3 6.6C33.2 6.7 32.7 7.6 32.6 7.9C32.6 7.6 32.8 6.7 32.8 6.6C32.8 6.5 32.7 6.4 32.7 6.3C32.7 6.1 32.8 6 33 5.9C33.8 5.4 34.7 5.1 35.6 5C38.1 4.7 40 5.5 40.6 5.9C41.5 6.6 42 7.5 42.1 8.6C41.9 9.1 41.6 9.8 41.4 10.2C40.6 11.9 41.7 12.3 41.7 12.3C41.2 12 41.4 10.8 41.6 10.1C41.7 9.6 41.9 9.2 42.1 8.7C42.1 8.7 42 9.7 42.1 10.3C42.2 10.9 42.1 12.1 44 12.3C44.3 12.4 43.9 11.6 43.9 11.6C43.7 11 43.3 11.1 43.3 11.1C42.7 11 42.5 10.8 42.3 10.7C42.2 10.5 42.2 10.3 42.2 10C42.4 10 43.1 10.3 43.1 10.3C43.8 10.6 43.4 9.8 43.4 9.8C43.4 9.3 43 9.4 43 9.4C42.7 9.4 42.3 9.2 42.2 9.1C42.2 8.9 42.2 8.6 42.2 8.3C42.4 8.2 42.7 8.4 42.7 8.4C43.2 8.7 43.1 8.2 43.1 8.2C43.1 7.8 42.6 7.8 42.6 7.8C42.4 7.8 42.2 7.7 42.1 7.6C42.1 7.4 42 7.3 41.9 7.1C42.3 7.4 42.8 7.3 43.1 7.2C43.1 7.2 43.7 6.9 44.2 5.7C44.3 5.4 44.8 4.5 44.8 4.4C44.8 4.3 45.3 4.4 45.2 4.1C45.2 4 44.7 3.8 44.6 3.8C44.3 3.6 44.2 3.7 44.2 3.7C44.1 3.8 44.2 3.9 44.2 4C44.2 4.2 43.6 5.7 43.3 6.2C43.1 6.4 43 6.6 42.7 6.6C42.5 6.6 42.1 6.3 42.2 6C42.4 5.6 42.9 4.2 43 4C43 3.8 43.2 3.7 43.2 3.7C43.5 3.5 42.9 3.4 42.8 3.3C42.6 3.2 42.4 3.1 42.1 3C41.9 2.9 41.8 3 41.8 3C41.7 3.1 41.8 3.3 41.8 3.4C41.8 3.5 41.5 4.4 41.3 4.7C41.1 5.1 40.8 5.9 40.8 5.9C40.6 5.7 40.3 5.5 40.1 5.4L40.2 5.3C40.4 4.9 40.3 4.4 40 4.1C40.6 3.9 40.8 3.1 40.5 2.6C40.2 2.1 39.5 2.1 38.9 1.9C38.7 1.9 38.5 1.8 38.2 1.7C38.1 1.7 37.8 1.6 37.8 1.7V1.9C37.9 2.2 37.9 2.5 37.8 2.7C37.6 3.3 37.5 3.9 37.3 4.4C36.4 4.3 35.6 4.4 34.8 4.6C34.8 4.5 34.8 4.1 34.9 3.9C34.9 3.8 35 3.6 34.9 3.6C34.8 3.7 34.4 4.1 34.3 4.2C34.1 4.4 33.9 4.6 33.5 4.7C33.4 4.7 33 4.9 33 4.6C33 4.5 33 3.5 33 3.2C33.3 3.1 33.6 3.2 33.8 3.5C33.8 3.6 34 3.5 34.1 3.5C34.1 3.4 34.1 2.8 34.1 2.6C34.1 2.5 33.8 2.7 33.8 2.7C33.6 2.8 33.2 2.8 33.1 2.7C33.1 2.4 33.1 2 33.1 1.7C33.2 1.7 33.4 1.7 33.5 1.7C33.8 1.7 34 1.8 34.2 2C34.3 2.1 34.4 2.3 34.6 2.3C34.6 2.3 34.8 2.2 34.7 1.9C34.7 1.8 34.6 1.5 34.5 1.4C34.4 1.3 33 1.3 32.7 1.3C32.4 1.3 31.9 1.2 31.7 1.4C31.6 1.5 31.7 1.6 31.7 1.6C31.8 1.7 31.9 1.9 31.9 2.1C31.9 2.4 32 4.3 31.9 4.4C31.9 4.6 31.8 5 31.7 5.4C31.6 5.6 33.5 5.4 33.8 5.4C33.5 5.5 33.3 5.7 33 5.8C32.7 5.9 32.3 6.1 32.3 6.5C32.3 6.7 32.4 6.8 32.4 6.9C32.4 7.1 32.3 7.3 32.3 7.5C32.3 7.8 32.3 8.2 32.3 8.5C32.3 8.8 32.3 9 32.3 9.3C32.3 9.5 31.9 10.2 31.9 10.4C31.8 10.7 31.6 11 31.8 11.3C32 11.5 32.4 11.5 32.4 11.4C32.4 11.4 32.1 11.9 32.4 12.1C32.3 12.1 32.3 12.5 32.3 12.7C31.8 12.8 31.3 12.8 30.9 13C30.5 13.1 30 13.4 29.7 13.7C29.6 13.7 28.7 14.1 27.9 15.5C27.9 15.6 27.4 16.1 27.2 16.3C25.7 18.1 24.3 20 23.4 22.2C23.2 22.8 22.8 23.7 23.2 24.3L23.4 24.5C23.5 24.6 23.7 24.7 23.8 24.7C22.4 24.6 19.4 24.5 19.3 24.5C19.1 24.5 19.2 24.8 19.4 24.8C20.1 24.9 25.4 25 25.4 25C25.9 25.1 26.4 25.1 26.9 25C27.7 25 28.4 24.9 29 24.8C30.3 24.8 32.7 24.9 33.9 24.8C33.9 24.9 33.8 25 33.8 25C33.8 25.4 34.2 25.4 34.4 25.7C35.1 26.4 35.8 26.5 36.1 26.5C36.1 26.9 36.6 28.1 36.8 28.3C36.8 28.3 35.6 30.1 35.1 31.5C35 31.5 34.5 31.4 34.5 31.3C34.4 30.9 34.2 30.5 33.9 30.2C33.7 30 33.5 29.7 33.2 29.7C33 29.7 32.8 29.7 32.6 29.6C30.9 29.4 29.3 29.3 27.6 29.1C26.9 29 26.2 28.9 25.5 28.9L25.3 29C25.5 29.3 25.8 29.6 26.1 29.9C25.7 29.9 25.2 29.9 24.8 29.9L24.7 30C24.9 30.2 25 30.3 25.2 30.5C24.5 30.6 23.9 30.7 23.6 31.3C23.6 31.4 23.3 31.9 22.7 32.4C22.5 32.6 22.1 32.8 22.2 33.3C22.2 33.5 22.4 33.5 22.6 33.5C22.5 33.6 20.9 34.9 20.6 36.3C20.4 37.2 20.9 39.1 21 39.4C21.1 39.8 21.5 42.8 21.4 43.9C21.4 44 21.5 47 21.6 47.6C21.6 47.9 21.8 47.9 21.8 47.9C22.2 48 22.6 48.1 22.9 48.2C23.1 48.3 23.2 48.4 23.3 48.6C23.3 48.7 23.3 48.9 23.4 49.1C23.6 49.7 24.5 49.3 24.9 49.3C25.6 49.3 26.3 49.5 27 49.5C27.1 49.5 28.2 49.4 28.4 49.6C28.5 49.7 28.5 49.7 28.6 49.8C29 50 29.4 49.7 29.5 49.7C29.7 49.6 30.1 49 30.2 48.9C30.2 49.2 30.6 49.7 30.6 49.8C30.6 49.8 29.6 50.7 29.5 51.1C29.5 51.3 29.4 51.4 29.4 51.5C29.4 51.6 29.4 51.6 29.4 51.7C29.4 51.8 29.3 52.1 29.3 52.3C29.3 52.4 28.3 53.2 28.1 54.4C28 54.8 28.4 54.8 28.4 54.8C28.4 54.8 27.7 55.3 26.4 55.5C23 54.8 19.9 53.4 17.2 51.6C17.1 51.6 17 51.5 17 51.4C16.9 51.4 16.8 51.3 16.8 51.2C16.8 51.2 16.7 51.2 16.7 51.1C15.7 50.3 14.7 49.5 13.7 48.6C11.8 46.8 10.3 44.7 9.1 42.4C9 42.5 8.4 43 7.7 43.2C7.7 43 7.5 42.7 7.9 42.7C8.2 42.6 8.1 42.2 8.2 42.1C8.2 42 8.6 41.8 8.8 41.7C8.8 41.5 9.3 40.9 9.5 40.7C9.7 40.5 9.8 40.3 9.9 40C9.9 39.8 10 39.7 10.3 39.7C10.6 39.6 10.8 39.2 10.8 39C10.8 38.8 10.7 38.6 10.6 38.4C10.5 38.1 10.6 37.6 10.7 37.4C10.9 37.1 11.2 36.8 10.7 36.3C10.5 36.1 10.6 35.8 10.6 35.6C10.6 35.3 10.4 34.7 9.2 35.6C9.1 35.7 9 35.5 8.9 35.5C8.8 35.5 8.5 35.5 8.2 36.1C8.1 36.2 8 36.3 7.8 36.3C7.7 36.3 7.5 36.4 7.4 36.4C7.3 36.5 7.3 36.5 7.1 36.6L6.5 37C6.3 36.8 6 36.7 5.8 36.6C5 36.2 4.1 36.1 3.3 36C2.3 35.8 1.3 35.5 0.7 34.8C0.6 33.7 0.5 32.6 0.5 31.4C0.5 31.3 0.5 31.1 0.5 31C0.4 14.3 14.1 0.7 31.2 0.4C31.3 0.4 31.5 0.4 31.6 0.4C48.6 0.4 62.6 13.9 62.8 30.6C62.8 30.7 62.8 30.9 62.8 31C62.8 32.3 62.7 33.5 62.6 34.7ZM34.1 24.6V24.7C33 24.7 31 24.7 30 24.7C30.1 24.7 33.9 23 34.5 22.8C34.5 22.9 34.5 23 34.4 23.1C34.2 23.5 34.1 24.4 34.1 24.6ZM34.3 16.1C32.8 16.8 31.6 18.2 30.5 19.3C30.1 19.8 29.4 20 28.8 20.3C28.8 20.2 30.7 16.4 30.8 16.2C30.8 16.2 31.2 16 31.6 16C32.1 16 32.6 16 33 16H34.2L34.3 16.1ZM39.2 4.2C39.5 4.4 39.3 4.8 39.2 5C38.9 4.9 38.7 4.8 38.4 4.8C38.4 4.7 38.5 4.2 38.5 4.2V4.1C38.7 4 39 4.1 39.2 4.2ZM38.7 3.6V3.3C38.7 3.1 38.8 2.8 38.8 2.6L38.9 2.5C39.1 2.5 39.5 2.6 39.6 2.8C39.8 3.2 39.6 3.7 39.2 3.8C39 3.8 38.8 3.8 38.7 3.6ZM42.6 11.3C42.6 11.3 43.4 11.4 43.5 11.7C43.5 11.7 43.8 12.4 43.1 12C43.2 12.1 42.8 12.1 42.6 11.3ZM42.3 9.7C42.4 9.7 42.9 9.9 42.9 9.9C43.4 10 43.2 10.2 43.2 10.2C43.1 10.3 42.5 10.1 42.5 10.1C42.1 10 42.3 9.7 42.3 9.7Z" fill="black"/>
<path d="M10.1 36.8C9.9 36.8 9.7 37.2 9.6 37.3C9.5 37.5 9.3 37.6 9.3 37.8C9.2 38 9.2 38.2 9.1 38.5C9 38.7 8.9 38.9001 8.7 39.1001C8.6 39.2001 8.5 39.3001 8.5 39.4001C8.5 39.5001 8.5 39.6 8.5 39.8C8.4 40 8.2 40.2 8 40.3C8 40.4 7.9 40.5001 7.8 40.6001C7.7 40.7001 7.7 40.8001 7.6 40.9001V41C7.5 41.1 7.5 41.2 7.5 41.3C7.6 41.1 7.9 41.1 8.1 41C8.2 40.9 8.2 40.8001 8.3 40.7001C8.4 40.6001 8.5 40.5 8.7 40.5C9 40.3 9 40.1 9.1 39.8C9.2 39.5 9.3 39.4001 9.6 39.2001C9.8 39.1001 9.9 38.9001 10 38.7001C10 38.5001 10 38.3001 9.9 38.1001C9.8 37.9001 9.8 37.7 9.9 37.5C10 37.2 10.1 37.1 10.1 36.8Z" fill="black"/>
<path d="M9 36C8.9 36 8.8 36 8.7 36.1C8.6 36.2 8.6 36.3 8.5 36.3C8.3 36.6 8.2 36.7 7.9 36.8C7.7 36.9 7.4 37.1 7.2 37.2C7 37.3 6.7 37.5 6.6 37.6C6.4 37.8 6.5 38.1 6.5 38.4C6.4 38.7 6.2 38.9 6.1 39.1C6 39.3 6.1 39.6 6.2 39.8C6.2 39.9 6.3 40 6.3 40.2C6.3 40.3 6.3 40.5 6.5 40.5C6.7 40.4 6.7 39.9 6.7 39.8C6.8 39.6 6.8 39.3 6.9 39.1C7.1 38.7 7.3 38.6 7.5 38.4C7.7 38.2 7.7 37.9 7.8 37.6C8 37.3 8.4 37 8.6 36.8C8.7 36.7 8.8 36.6 8.9 36.4C9.1 36.3 9.3 36 9 36Z" fill="black"/>
<path d="M57.1 40.6001C57.3 40.6001 57.3 40.5001 57.3 40.4001C57.4 40.3001 57.4 40.2001 57.4 40.1001C57.6 39.6001 57.6 39 57.8 38.5C57.9 38.3 58 38.1001 58.1 37.9001C58.1 37.7001 58.2 37.5 58.2 37.3C58.1 37.4 57.9 37.6001 57.8 37.7001C57.7 37.8001 57.6 37.9 57.5 38C57.3 38.2 57.2 38.4001 57.2 38.7001C57.2 38.9001 57.2 39.2001 57.3 39.4001C57.3 39.6001 57.3 39.9001 57.3 40.1001C57.2 40.2001 57.1 40.4001 57.1 40.6001Z" fill="black"/>
<path d="M56 40.3C56.1 40.4 56.2 40.5 56.3 40.5C56.4 40.6 56.5 40.7 56.5 40.8C56.6 41 56.6 41.1 56.7 41.3H56.8L56.9 41.2C57 40.9 56.7 40.6 56.6 40.3C56.5 40.1 56.4 40 56.4 39.8C56.4 39.6 56.4 39.5 56.5 39.4C56.5 39.3 56.7 38.9 56.4 38.9C56.2 38.9 56.2 39.2 56.1 39.3C56.1 39.4 56.1 39.5 56 39.5C55.9 39.6 55.9 39.7 55.8 39.8C55.9 39.9 55.9 40.1 56 40.3Z" fill="black"/>
<path d="M158.5 17.2H155V14.8H158.5V11.8C158.5 8.29995 159.2 5.69995 164 5.69995C164.9 5.69995 165.3 5.69995 165.8 5.79995V8.19995C165.4 8.09995 164.9 8.09995 164.4 8.09995C162.3 8.09995 161.3 8.89995 161.3 11.8V14.8H165.8V17.2H161.3V40.1H158.4L158.5 17.2Z" fill="#BDBDBD"/>
<path d="M169.4 22.3C169.4 17.1 171.9 14.2 177.2 14.2C182.4 14.2 184.3 16.9 184.3 20.9V35.7999C184.3 37.1999 184.8 37.9 185.8 37.9H186.6V40C186.1 40.2 185.6 40.2999 185.3 40.2999C183.1 40.2999 181.6 39.8 181.6 37.2V36.2999H181.5C180.4 39.5999 177.8 40.6 175 40.6C170.6 40.6 168.6 37.7999 168.6 33.5C168.6 30.2 170.1 27.5 173.7 26.5L179.1 25C181.1 24.4 181.5 24 181.5 21C181.5 17.8 179.7 16.6 177.1 16.6C173.7 16.6 172.2 18.6 172.2 22.3H169.4ZM181.5 25.8C181.1 26.7 179.5 27.2 178.4 27.5L176 28.1C173.1 28.9 171.7 30.2999 171.7 33.2999C171.7 36.2999 173.2 38.2999 175.7 38.2999C179.2 38.2999 181.6 35.7 181.6 31.2L181.5 25.8Z" fill="#BDBDBD"/>
<path d="M204.5 35.9C203.6 38.8 201.2 40.7 198.2 40.7C192.6 40.7 190.1 36.2 190.1 27.5C190.1 18.8 192.6 14.3 198.2 14.3C201.3 14.3 203.5 16 204.1 18.7H204.2V6.09998H207.1V40.1H204.5V35.9ZM198.7 38.3C201.6 38.3 204.2 36.8 204.2 27.4C204.2 18.1 201.6 16.6 198.7 16.6C195.8 16.6 193.2 18.1 193.2 27.4C193.1 36.8 195.8 38.3 198.7 38.3Z" fill="#BDBDBD"/>
<path d="M213.2 14.7999H216.1V32.5999C216.1 36.6999 217.5 38.2999 220.5 38.2999C223.7 38.2999 226 35.6999 226 31.7999V14.7999H228.9V40.0999H226.3V36.5999H226.2C224.8 39.3999 222.3 40.6999 219.7 40.6999C215.8 40.6999 213.2 38.6999 213.2 33.8999V14.7999Z" fill="#BDBDBD"/>
<path d="M101.3 30.7C101.3 37.5 97.3 40.7999 90.6 40.7999C83.9 40.7999 79.9 37.5 79.9 30.7V15.2H85.4V30.7C85.4 33.4 86.1 36.1 90.6 36.1C94.5 36.1 95.8 34.4 95.8 30.7V15.2H101.3V30.7Z" fill="#1D1D1B"/>
<path d="M106.1 15.2H117.9C122.7 15.2 125.9 16.7 125.9 21.4C125.9 23.9 124.7 25.6 122.5 26.6C125.5 27.5 127.1 29.8 127.1 32.9C127.1 38 122.8 40.2 118.3 40.2H106.2L106.1 15.2ZM111.6 25.3H117.2C119.1 25.3 120.6 24.4 120.6 22.3C120.6 19.9 118.8 19.4 116.8 19.4H111.6V25.3ZM111.6 35.9H117.5C119.7 35.9 121.6 35.2 121.6 32.6C121.6 30 120 29 117.6 29H111.6V35.9Z" fill="#1D1D1B"/>
<path d="M137.6 15.2H143.2L152.6 40.2H146.9L145 34.6H135.6L133.6 40.2H128L137.6 15.2ZM137 30.5H143.5L140.3 21.3L137 30.5Z" fill="#1D1D1B"/>
<path d="M76.9 37.1999C76.9 39.0999 75.4 40.5999 73.5 40.5999C71.6 40.5999 70.1 39.0999 70.1 37.1999C70.1 35.2999 71.6 33.7999 73.5 33.7999C75.4 33.6999 76.9 35.2999 76.9 37.1999Z" fill="#1D1D1B"/>
</svg>
