<svg width="59" height="30" viewBox="0 0 59 30" fill="none" xmlns="http://www.w3.org/2000/svg">
<path d="M1 9V1H58V9M58 21V29L1 29L1 21" stroke="#1D1D1B" stroke-width="1.5"/>
<path d="M8 20.2V9H10.144L14.912 16.904H13.776L18.464 9H20.592L20.624 20.2H18.192L18.176 12.728H18.624L14.88 19.016H13.712L9.888 12.728H10.432V20.2H8Z" fill="black"/>
<path d="M30.1965 13.512H35.5885V15.528H30.1965V13.512ZM30.3885 18.12H36.4845V20.2H27.8125V9H36.2765V11.08H30.3885V18.12Z" fill="black"/>
<path d="M45.3981 20.2V11.112H41.8141V9H51.5741V11.112H47.9901V20.2H45.3981Z" fill="black"/>
</svg>
